<svg xmlns="http://www.w3.org/2000/svg" width="1600" height="260" viewBox="0 0 1600 260">
  <g id="first_bar" data-name="first bar" transform="translate(0 -5004)">
    <rect id="Rectangle_125" data-name="Rectangle 125" width="1600" height="260" transform="translate(0 5004)" fill="#f15c2c"/>
    <g id="Group_4055" data-name="Group 4055" transform="translate(-605.758 3763)" opacity="0.2">
      <path id="Path_1678" data-name="Path 1678" d="M-370.453,392.212a14.74,14.74,0,0,1-6.977-10.493c-.547-3.945.54-7.912,1.616-11.746a6.353,6.353,0,0,1,1.488-3.042A18.364,18.364,0,0,1-363.6,382.144a11.328,11.328,0,0,1-1.416,6.8,6.569,6.569,0,0,1-5.886,3.23" transform="translate(2524.584 1069.298)" fill="#fff"/>
      <path id="Path_1679" data-name="Path 1679" d="M-422.093,291.06c-2.76-3.618-2.741-8.771-1.1-13.017s4.659-7.788,7.641-11.226a10.76,10.76,0,0,1,3.833,6.145c1.676,6.259-.371,13.641-5.7,17.324-1.572,1.086-3.7,1.825-5.354.871" transform="translate(2246.607 1113.875)" fill="#fff"/>
      <g id="Group_4030" data-name="Group 4030" transform="translate(1196.505 1403.339)">
        <g id="Group_3724" data-name="Group 3724" transform="translate(0.619)">
          <g id="Group_3709" data-name="Group 3709" transform="translate(128.686 41.558)">
            <path id="Path_1757" data-name="Path 1757" d="M-518.311,451.38a36.332,36.332,0,0,0,3.229-18.829c-.061-.667-1.088-.5-1.027.162A35.268,35.268,0,0,1-519.278,451c-.282.609.687.984.967.379Z" transform="translate(519.329 -432.125)" fill="#fff"/>
          </g>
          <g id="Group_3710" data-name="Group 3710" transform="translate(133.736 56.024)">
            <path id="Path_1758" data-name="Path 1758" d="M-513.259,450.345a9.358,9.358,0,0,0,.862-3.2.52.52,0,0,0-1.034-.107,8.489,8.489,0,0,1-.795,2.925c-.287.607.683.981.967.379Z" transform="translate(514.279 -446.591)" fill="#fff"/>
          </g>
          <g id="Group_3711" data-name="Group 3711" transform="translate(138.601 40.34)">
            <path id="Path_1759" data-name="Path 1759" d="M-508.386,448.493a30.02,30.02,0,0,0,3.326-17.16c-.065-.667-1.091-.5-1.026.161a29.072,29.072,0,0,1-3.267,16.621c-.311.592.659.965.967.378Z" transform="translate(509.414 -430.907)" fill="#fff"/>
          </g>
          <g id="Group_3712" data-name="Group 3712" transform="translate(145.434 52.237)">
            <path id="Path_1760" data-name="Path 1760" d="M-501.564,448.342a8.318,8.318,0,0,0,.6-5.119c-.128-.655-1.156-.5-1.027.161a7.356,7.356,0,0,1-.545,4.58c-.279.61.69.985.967.378Z" transform="translate(502.581 -442.804)" fill="#fff"/>
          </g>
          <g id="Group_3713" data-name="Group 3713" transform="translate(151.467 48.439)">
            <path id="Path_1761" data-name="Path 1761" d="M-495.532,449.39a19.926,19.926,0,0,0,1.681-9.958c-.056-.667-1.082-.5-1.026.162a18.862,18.862,0,0,1-1.622,9.418c-.275.612.694.988.967.378Z" transform="translate(496.548 -439.006)" fill="#fff"/>
          </g>
          <g id="Group_3723" data-name="Group 3723">
            <g id="Group_3714" data-name="Group 3714" transform="translate(72.893 19.214)">
              <path id="Path_1762" data-name="Path 1762" d="M-560.4,409.808c-11.107,1.021-17.041,14.011-13.87,23.956,2.143,6.72,7.679,9.752,13.936,12.21,9.06,3.559,19,4.7,28.606,5.728a196.663,196.663,0,0,0,26.877,1.462c6.158-.184,14.116-1.35,17.048-7.576,3.237-6.873-7.65-11.923-11.982-14.515-9.235-5.526-19.347-9.57-29.472-13.132-5.587-1.965-11.256-3.675-16.887-5.506-4.677-1.522-9.29-2.861-14.256-2.627-1.337.064-1,2.116.322,2.053,4.964-.234,9.621,1.352,14.278,2.867,4.4,1.432,8.829,2.785,13.217,4.264A187.488,187.488,0,0,1-504.2,430.947a96.731,96.731,0,0,1,10.889,6.644,9.159,9.159,0,0,1,3.869,5.087c.7,2.868-2.448,5.135-4.566,6.239-6.4,3.335-15.056,2.312-22.012,2.043a236.057,236.057,0,0,1-27.256-2.826c-8.332-1.3-19.676-3.249-25.9-9.524-8.267-8.335-2.778-25.657,9.1-26.749C-558.744,411.739-559.071,409.686-560.4,409.808Z" transform="translate(575.121 -409.781)" fill="#fff"/>
            </g>
            <g id="Group_3715" data-name="Group 3715" transform="translate(83.836 35.82)">
              <path id="Path_1763" data-name="Path 1763" d="M-563.162,443.784a43.538,43.538,0,0,0,3.983-16.838c.023-.665-1.011-.78-1.034-.108a42.876,42.876,0,0,1-3.916,16.568c-.279.609.69.985.967.378Z" transform="translate(564.179 -426.387)" fill="#fff"/>
            </g>
            <g id="Group_3716" data-name="Group 3716" transform="translate(94.208 22.48)">
              <path id="Path_1764" data-name="Path 1764" d="M-552.783,443.691a60.013,60.013,0,0,0,6.292-30.218c-.035-.668-1.061-.5-1.026.162a59.017,59.017,0,0,1-6.233,29.677c-.3.6.67.973.967.379Z" transform="translate(553.807 -413.047)" fill="#fff"/>
            </g>
            <g id="Group_3717" data-name="Group 3717" transform="translate(99.955 49.686)">
              <path id="Path_1765" data-name="Path 1765" d="M-547.014,443.757l.624-2.957c.138-.655-.9-.758-1.034-.108l-.623,2.957c-.138.655.9.758,1.033.108Z" transform="translate(548.06 -440.253)" fill="#fff"/>
            </g>
            <g id="Group_3718" data-name="Group 3718" transform="translate(106.232 43.168)">
              <path id="Path_1766" data-name="Path 1766" d="M-540.754,449.55a31.624,31.624,0,0,0,3.705-15.258c-.006-.662-1.039-.779-1.033-.108a31.073,31.073,0,0,1-3.64,14.988c-.312.592.659.964.968.378Z" transform="translate(541.783 -433.735)" fill="#fff"/>
            </g>
            <g id="Group_3719" data-name="Group 3719" transform="translate(113.146 48.015)">
              <path id="Path_1767" data-name="Path 1767" d="M-533.87,443.029a9.821,9.821,0,0,0,.514-4.02c-.051-.668-1.078-.5-1.026.161a8.538,8.538,0,0,1-.455,3.48c-.219.631.747,1.012.967.379Z" transform="translate(534.869 -438.582)" fill="#fff"/>
            </g>
            <g id="Group_3720" data-name="Group 3720" transform="translate(116.824 33.262)">
              <path id="Path_1768" data-name="Path 1768" d="M-530.17,445.609a37.724,37.724,0,0,0,3.41-21.355.52.52,0,0,0-1.026.162,36.728,36.728,0,0,1-3.351,20.814c-.29.6.68.98.967.379Z" transform="translate(531.19 -423.829)" fill="#fff"/>
            </g>
            <g id="Group_3721" data-name="Group 3721" transform="translate(126.367 35.724)">
              <path id="Path_1769" data-name="Path 1769" d="M-520.653,430.9a12.335,12.335,0,0,0,.565-4.185c-.023-.668-1.049-.5-1.026.161a10.833,10.833,0,0,1-.507,3.646c-.2.635.766,1.018.968.378Z" transform="translate(521.648 -426.291)" fill="#fff"/>
            </g>
            <g id="Group_3722" data-name="Group 3722">
              <path id="Path_1770" data-name="Path 1770" d="M-573.486,425.715l-19.624-5.428a.7.7,0,0,0-.8,1.074,10.226,10.226,0,0,1,1.7,6.846,8.828,8.828,0,0,1-1.655,4.144l-1.3,1.308q-4.527,3.2-5.753-2.977a.7.7,0,0,0-1.075-.8,37.389,37.389,0,0,1-16.905,6.419,12.435,12.435,0,0,1-8.983-2.559,6.7,6.7,0,0,1,.222-10.72c.563-.379.171-1.116-.358-1.233-8.435-1.864-20.612-10.171-17.84-20.246,3.047-11.078,23-2.189,28.944,1.2.627.358,1.527-.35.958-.985-2.338-2.609-1.786-6.117.714-8.355,2.348-2.1,5.948-1.659,8.573-.531,5.531,2.377,7.353,9.4,8.495,14.667a.693.693,0,0,0,1.368-.215c-.919-6.988,8.542-8.882,10.512-1.985,1.056,3.7.52,9-1.975,11.928a.694.694,0,0,0,.3,1.059q7.53,1.885,14.881,4.361c.844.284,1.353-1.005.505-1.29q-7.356-2.477-14.881-4.36l.3,1.059c3.36-3.941,4.558-14.691-.922-17.607-5.26-2.8-10.87,1.149-10.093,7.05l1.368-.215c-1.632-7.522-5.161-16.87-14.346-16.762-6.136.072-10.184,7.264-5.891,12.055l.958-.984c-7.428-4.239-24.992-12.083-30.684-1.552-5.84,10.806,10.186,21.223,18.607,23.084l-.357-1.232c-6.524,4.389-2.552,12.531,3.388,14.961,7.38,3.019,18.008-1.675,24-5.926l-1.074-.8c-1.481,4.179,3.451,7.492,7.069,5.115,5.048-3.316,5.5-10.013,2.315-14.791l-.8,1.075,19.625,5.428c.852.235,1.365-1.052.5-1.29Z" transform="translate(648.015 -390.567)" fill="#fff"/>
            </g>
          </g>
        </g>
      </g>
      <g id="Group_3764" data-name="Group 3764" transform="translate(1682.027 1368.727)">
        <g id="Group_3745" data-name="Group 3745">
          <path id="Path_1789" data-name="Path 1789" d="M-469.242,99.185c-2.706-4.985-1.7-11.812-.23-17.057,1.772-6.318,5.777-10.209,11.586-13C-445,62.931-430.82,71.609-428.6,85.265c.154.943,1.584.541,1.432-.395a23.866,23.866,0,0,0-10.187-15.911c-6.1-4.177-13.7-4.273-20.363-1.522-6.205,2.561-10.492,6.662-12.77,12.98-2.1,5.823-3.087,13.9-.039,19.517.456.842,1.738.092,1.281-.749Z" transform="translate(472.452 -65.564)" fill="#fff"/>
        </g>
        <g id="Group_3746" data-name="Group 3746" transform="translate(1.689 18.761)">
          <path id="Path_1790" data-name="Path 1790" d="M-469.681,100.015a80.939,80.939,0,0,1,41.8-14.205c.953-.045.957-1.53,0-1.484a82.389,82.389,0,0,0-42.55,14.408c-.784.538-.043,1.824.749,1.281Z" transform="translate(470.764 -84.325)" fill="#fff"/>
        </g>
        <g id="Group_3747" data-name="Group 3747" transform="translate(1.82 30.78)">
          <path id="Path_1791" data-name="Path 1791" d="M-469.914,100.58c5.848.006,11.162-1.308,16.776-2.776a.743.743,0,0,0-.394-1.432C-459,97.8-464.207,99.1-469.914,99.1a.742.742,0,0,0,0,1.484Z" transform="translate(470.632 -96.345)" fill="#fff"/>
        </g>
        <g id="Group_3748" data-name="Group 3748" transform="translate(30.801 19.085)">
          <path id="Path_1792" data-name="Path 1792" d="M-428.4,84.832a37.549,37.549,0,0,1-12.728,7.209c-.91.285-.521,1.718.395,1.431a39.486,39.486,0,0,0,13.383-7.59c.737-.612-.319-1.656-1.05-1.05Z" transform="translate(441.651 -84.649)" fill="#fff"/>
        </g>
        <g id="Group_3749" data-name="Group 3749" transform="translate(18.042 24.253)">
          <path id="Path_1793" data-name="Path 1793" d="M-454.386,94.478c1.5,6.2,2.407,12.988,5.23,18.76,1.592,3.256,4.787,7.025,8.847,6.376,4.481-.715,9.018-5.459,7.99-10.25-.652-3.043-2.4-5.877-3.791-8.632-1.791-3.558-3.674-7.07-5.614-10.549-.466-.836-1.748-.088-1.281.749q3.806,6.827,7.25,13.842c1.468,2.992,2.8,5.612,1.279,8.9a8.348,8.348,0,0,1-6.572,4.518c-4.239.269-6.8-5.184-7.981-8.431-1.812-5.005-2.671-10.507-3.926-15.676-.225-.93-1.656-.536-1.431.394Z" transform="translate(454.41 -89.818)" fill="#fff"/>
        </g>
        <g id="Group_3750" data-name="Group 3750" transform="translate(18.255 24.154)">
          <path id="Path_1794" data-name="Path 1794" d="M-453.1,94.617A21.428,21.428,0,0,1-442.511,91.2c.952-.049.957-1.534,0-1.484a22.988,22.988,0,0,0-11.341,3.615c-.8.514-.06,1.8.749,1.282Z" transform="translate(454.197 -89.719)" fill="#fff"/>
        </g>
        <g id="Group_3751" data-name="Group 3751" transform="translate(22.53 33.687)">
          <path id="Path_1795" data-name="Path 1795" d="M-449.92,99.607a27.035,27.035,0,0,0,6.635,15.336c.315.361.838-.166.524-.524a26.2,26.2,0,0,1-6.417-14.812c-.046-.472-.789-.476-.742,0Z" transform="translate(449.922 -99.251)" fill="#fff"/>
        </g>
        <g id="Group_3752" data-name="Group 3752" transform="translate(21.578 31.211)">
          <path id="Path_1796" data-name="Path 1796" d="M-450.861,97.237l.251.989a.371.371,0,0,0,.716-.2l-.251-.989a.372.372,0,0,0-.716.2Z" transform="translate(450.874 -96.776)" fill="#fff"/>
        </g>
        <g id="Group_3753" data-name="Group 3753" transform="translate(17.026 25.869)">
          <path id="Path_1797" data-name="Path 1797" d="M-455.072,92.178a7.167,7.167,0,0,1,3.386,1.293c.393.276.763-.368.375-.641a7.932,7.932,0,0,0-3.761-1.394c-.475-.051-.47.692,0,.742Z" transform="translate(455.426 -91.433)" fill="#fff"/>
        </g>
        <g id="Group_3754" data-name="Group 3754" transform="translate(9.81 28.429)">
          <path id="Path_1798" data-name="Path 1798" d="M-462.177,95.347c2.811-.513,5.59-.957,8.407-.257a.371.371,0,0,0,.2-.715c-2.942-.732-5.868-.279-8.8.256-.47.086-.27.8.2.716Z" transform="translate(462.642 -93.993)" fill="#fff"/>
        </g>
        <g id="Group_3755" data-name="Group 3755" transform="translate(8.36 29.823)">
          <path id="Path_1799" data-name="Path 1799" d="M-463.536,99.5a29.152,29.152,0,0,1,9.528-3.395c.471-.081.271-.8-.2-.716a29.767,29.767,0,0,0-9.706,3.47.372.372,0,0,0,.375.641Z" transform="translate(464.092 -95.388)" fill="#fff"/>
        </g>
        <g id="Group_3756" data-name="Group 3756" transform="translate(23.255 23.504)">
          <path id="Path_1800" data-name="Path 1800" d="M-448.455,91.54V89.428a.371.371,0,0,0-.742,0V91.54a.371.371,0,0,0,.742,0Z" transform="translate(449.197 -89.069)" fill="#fff"/>
        </g>
        <g id="Group_3757" data-name="Group 3757" transform="translate(26.31 22.14)">
          <path id="Path_1801" data-name="Path 1801" d="M-445.414,90.482a9.769,9.769,0,0,1,.833-2.217c.222-.423-.419-.8-.641-.374a10.611,10.611,0,0,0-.908,2.394c-.114.465.6.662.716.2Z" transform="translate(446.142 -87.705)" fill="#fff"/>
        </g>
        <g id="Group_3758" data-name="Group 3758" transform="translate(30.072 24.342)">
          <path id="Path_1802" data-name="Path 1802" d="M-441.913,91.5l6.525-.88c.472-.063.271-.778-.2-.715l-6.525.879c-.473.064-.271.779.2.716Z" transform="translate(442.38 -89.906)" fill="#fff"/>
        </g>
        <g id="Group_3759" data-name="Group 3759" transform="translate(2.953 18.695)">
          <path id="Path_1803" data-name="Path 1803" d="M-468.656,84.526c-.659,3-1.223,5.993-.516,9.042.108.466.824.268.716-.2-.677-2.916-.114-5.777.515-8.647.1-.467-.613-.665-.715-.2Z" transform="translate(469.499 -84.259)" fill="#fff"/>
        </g>
        <g id="Group_3760" data-name="Group 3760" transform="translate(4.357 14.679)">
          <path id="Path_1804" data-name="Path 1804" d="M-467.186,80.414a6.972,6.972,0,0,0-.895,2.007.371.371,0,0,0,.715.2,6.36,6.36,0,0,1,.821-1.83c.263-.4-.38-.773-.641-.374Z" transform="translate(468.096 -80.243)" fill="#fff"/>
        </g>
        <g id="Group_3761" data-name="Group 3761" transform="translate(29.342 20.221)">
          <path id="Path_1805" data-name="Path 1805" d="M-442.476,90.4a16.365,16.365,0,0,1,7.155-3.882.371.371,0,0,0-.2-.715A17.141,17.141,0,0,0-443,89.874a.371.371,0,0,0,.524.525Z" transform="translate(443.11 -85.785)" fill="#fff"/>
        </g>
        <g id="Group_3762" data-name="Group 3762" transform="translate(34.116 6.592)">
          <path id="Path_1806" data-name="Path 1806" d="M-438.209,72.769a20.527,20.527,0,0,1,6.752,9.729c.148.453.865.259.715-.2a21.2,21.2,0,0,0-6.942-10.057c-.37-.3-.9.226-.525.525Z" transform="translate(438.337 -72.156)" fill="#fff"/>
        </g>
        <g id="Group_3763" data-name="Group 3763" transform="translate(33.354 47.117)">
          <path id="Path_1807" data-name="Path 1807" d="M-438.634,115.6a2.834,2.834,0,0,0,2.192-2.564c.037-.478-.706-.474-.742,0a2.08,2.08,0,0,1-1.648,1.848c-.467.1-.269.818.2.716Z" transform="translate(439.099 -112.681)" fill="#fff"/>
        </g>
      </g>
      <g id="Group_3784" data-name="Group 3784" transform="translate(625.332 1393.418)">
        <g id="Group_3765" data-name="Group 3765">
          <path id="Path_1808" data-name="Path 1808" d="M-709.631,334.2c-2.705-4.985-1.7-11.812-.23-17.057,1.772-6.318,5.778-10.209,11.586-13,12.885-6.195,27.066,2.483,29.291,16.139.153.943,1.583.541,1.431-.395a23.867,23.867,0,0,0-10.187-15.911c-6.1-4.177-13.7-4.273-20.362-1.522-6.206,2.561-10.493,6.662-12.77,12.98-2.1,5.823-3.088,13.9-.04,19.517.457.842,1.738.092,1.281-.749Z" transform="translate(712.841 -300.583)" fill="#fff"/>
        </g>
        <g id="Group_3766" data-name="Group 3766" transform="translate(1.688 18.761)">
          <path id="Path_1809" data-name="Path 1809" d="M-710.07,335.034a80.942,80.942,0,0,1,41.8-14.2c.953-.045.957-1.529,0-1.484a82.389,82.389,0,0,0-42.55,14.408c-.784.538-.043,1.824.749,1.281Z" transform="translate(711.153 -319.344)" fill="#fff"/>
        </g>
        <g id="Group_3767" data-name="Group 3767" transform="translate(1.82 30.78)">
          <path id="Path_1810" data-name="Path 1810" d="M-710.3,335.6c5.848.006,11.163-1.308,16.777-2.776a.743.743,0,0,0-.4-1.432c-5.471,1.432-10.675,2.729-16.382,2.724a.742.742,0,0,0,0,1.484Z" transform="translate(711.021 -331.364)" fill="#fff"/>
        </g>
        <g id="Group_3768" data-name="Group 3768" transform="translate(30.802 19.085)">
          <path id="Path_1811" data-name="Path 1811" d="M-668.794,319.851a37.554,37.554,0,0,1-12.727,7.209c-.91.285-.522,1.718.394,1.431a39.477,39.477,0,0,0,13.383-7.59c.737-.612-.319-1.656-1.05-1.05Z" transform="translate(682.039 -319.668)" fill="#fff"/>
        </g>
        <g id="Group_3769" data-name="Group 3769" transform="translate(18.042 24.253)">
          <path id="Path_1812" data-name="Path 1812" d="M-694.775,329.5c1.505,6.2,2.408,12.988,5.231,18.76,1.592,3.256,4.786,7.025,8.846,6.376,4.481-.715,9.018-5.459,7.991-10.25-.653-3.043-2.406-5.877-3.792-8.632-1.791-3.558-3.674-7.07-5.614-10.549-.466-.836-1.748-.088-1.281.749q3.805,6.827,7.25,13.842c1.468,2.992,2.8,5.612,1.279,8.9a8.346,8.346,0,0,1-6.572,4.518c-4.239.269-6.8-5.184-7.98-8.431-1.813-5.005-2.672-10.507-3.926-15.676-.226-.93-1.657-.536-1.432.394Z" transform="translate(694.799 -324.837)" fill="#fff"/>
        </g>
        <g id="Group_3770" data-name="Group 3770" transform="translate(18.255 24.154)">
          <path id="Path_1813" data-name="Path 1813" d="M-693.491,329.636a21.421,21.421,0,0,1,10.591-3.413c.952-.049.957-1.534,0-1.484a22.981,22.981,0,0,0-11.34,3.615c-.8.514-.06,1.8.749,1.282Z" transform="translate(694.586 -324.738)" fill="#fff"/>
        </g>
        <g id="Group_3771" data-name="Group 3771" transform="translate(22.53 33.687)">
          <path id="Path_1814" data-name="Path 1814" d="M-690.309,334.626a27.035,27.035,0,0,0,6.635,15.336c.316.361.838-.166.525-.524a26.184,26.184,0,0,1-6.417-14.812c-.047-.472-.789-.476-.743,0Z" transform="translate(690.311 -334.271)" fill="#fff"/>
        </g>
        <g id="Group_3772" data-name="Group 3772" transform="translate(21.579 31.211)">
          <path id="Path_1815" data-name="Path 1815" d="M-691.249,332.256l.251.989a.371.371,0,0,0,.715-.2l-.251-.989a.371.371,0,0,0-.715.2Z" transform="translate(691.262 -331.795)" fill="#fff"/>
        </g>
        <g id="Group_3773" data-name="Group 3773" transform="translate(17.026 25.869)">
          <path id="Path_1816" data-name="Path 1816" d="M-695.46,327.2a7.175,7.175,0,0,1,3.386,1.292c.392.276.763-.368.374-.641a7.928,7.928,0,0,0-3.76-1.394c-.476-.051-.471.692,0,.743Z" transform="translate(695.815 -326.452)" fill="#fff"/>
        </g>
        <g id="Group_3774" data-name="Group 3774" transform="translate(9.81 28.429)">
          <path id="Path_1817" data-name="Path 1817" d="M-702.565,330.366c2.81-.513,5.589-.957,8.406-.257a.371.371,0,0,0,.2-.715c-2.942-.732-5.867-.279-8.8.256-.47.086-.27.8.2.716Z" transform="translate(703.031 -329.012)" fill="#fff"/>
        </g>
        <g id="Group_3775" data-name="Group 3775" transform="translate(8.36 29.823)">
          <path id="Path_1818" data-name="Path 1818" d="M-703.925,334.524a29.152,29.152,0,0,1,9.528-3.395c.471-.081.271-.8-.2-.716a29.775,29.775,0,0,0-9.706,3.47.372.372,0,0,0,.375.641Z" transform="translate(704.481 -330.407)" fill="#fff"/>
        </g>
        <g id="Group_3776" data-name="Group 3776" transform="translate(23.256 23.504)">
          <path id="Path_1819" data-name="Path 1819" d="M-688.843,326.559v-2.112a.371.371,0,0,0-.742,0v2.112a.371.371,0,0,0,.742,0Z" transform="translate(689.585 -324.088)" fill="#fff"/>
        </g>
        <g id="Group_3777" data-name="Group 3777" transform="translate(26.31 22.14)">
          <path id="Path_1820" data-name="Path 1820" d="M-685.8,325.5a9.817,9.817,0,0,1,.833-2.217c.222-.423-.419-.8-.64-.374a10.565,10.565,0,0,0-.909,2.394c-.114.465.6.662.716.2Z" transform="translate(686.531 -322.724)" fill="#fff"/>
        </g>
        <g id="Group_3778" data-name="Group 3778" transform="translate(30.073 24.342)">
          <path id="Path_1821" data-name="Path 1821" d="M-682.3,326.524l6.525-.88c.473-.063.271-.778-.2-.715l-6.525.879c-.472.064-.27.779.2.716Z" transform="translate(682.768 -324.925)" fill="#fff"/>
        </g>
        <g id="Group_3779" data-name="Group 3779" transform="translate(2.953 18.695)">
          <path id="Path_1822" data-name="Path 1822" d="M-709.045,319.545c-.659,3-1.223,5.993-.516,9.042.109.466.824.268.716-.2-.676-2.916-.114-5.777.515-8.647.1-.467-.613-.665-.715-.2Z" transform="translate(709.888 -319.278)" fill="#fff"/>
        </g>
        <g id="Group_3780" data-name="Group 3780" transform="translate(4.357 14.679)">
          <path id="Path_1823" data-name="Path 1823" d="M-707.574,315.433a6.946,6.946,0,0,0-.9,2.007.371.371,0,0,0,.715.2,6.36,6.36,0,0,1,.821-1.83c.263-.4-.38-.773-.64-.374Z" transform="translate(708.485 -315.262)" fill="#fff"/>
        </g>
        <g id="Group_3781" data-name="Group 3781" transform="translate(29.342 20.221)">
          <path id="Path_1824" data-name="Path 1824" d="M-682.864,325.418a16.354,16.354,0,0,1,7.155-3.882.371.371,0,0,0-.2-.715,17.145,17.145,0,0,0-7.482,4.072.371.371,0,0,0,.525.525Z" transform="translate(683.499 -320.804)" fill="#fff"/>
        </g>
        <g id="Group_3782" data-name="Group 3782" transform="translate(34.116 6.592)">
          <path id="Path_1825" data-name="Path 1825" d="M-678.6,307.788a20.52,20.52,0,0,1,6.752,9.729c.148.453.865.259.716-.2a21.212,21.212,0,0,0-6.943-10.057c-.37-.3-.9.226-.525.525Z" transform="translate(678.726 -307.175)" fill="#fff"/>
        </g>
        <g id="Group_3783" data-name="Group 3783" transform="translate(33.354 47.117)">
          <path id="Path_1826" data-name="Path 1826" d="M-679.023,350.621a2.834,2.834,0,0,0,2.192-2.564c.037-.478-.705-.474-.742,0a2.079,2.079,0,0,1-1.647,1.848c-.468.1-.269.818.2.716Z" transform="translate(679.487 -347.7)" fill="#fff"/>
        </g>
      </g>
      <g id="Group_4034" data-name="Group 4034" transform="translate(1081.578 1284.022)">
        <g id="Group_3819" data-name="Group 3819">
          <g id="Group_3813" data-name="Group 3813" transform="translate(0 13.351)">
            <path id="Path_1853" data-name="Path 1853" d="M-582.807,75.267c-11.365,9.648-24.418,18.274-39.861,18.313-.614,0-.493.946.112.945,15.594-.04,28.842-8.754,40.322-18.5.465-.4-.1-1.156-.573-.759Z" transform="translate(623.073 -75.156)" fill="#fff"/>
          </g>
          <g id="Group_3814" data-name="Group 3814" transform="translate(29.713 2.318)">
            <path id="Path_1854" data-name="Path 1854" d="M-592.308,83.373a16.15,16.15,0,0,1,.493-6.448c.344-1.232,1.932-5.23,2.285-1.941a.479.479,0,0,0,.849.234c1.431-2.221,2.371-4.593,4.089-6.664a16.98,16.98,0,0,1,2.684-2.54q2-1.893,3.341,1.285a15.494,15.494,0,0,1-.593,1.874.478.478,0,0,0,.816.473c1.792-2.371,9.2-4.715,10.861-1.427,1.813,3.585-5.926,6.475-8.077,7.655a.478.478,0,0,0,.232.915,3.633,3.633,0,0,1,3.878,2.08q-.468,3.7-3.863,3.114a20.1,20.1,0,0,1-4.267-.772.478.478,0,0,0-.445.757c3.044,3.293-4.027,2.882-5.182,2.792a24.167,24.167,0,0,1-7.334-1.907.476.476,0,0,0-.366.878,26.842,26.842,0,0,0,11.551,2.045c3.148-.128,4.343-1.944,2.09-4.381l-.445.757c1.675.44,9.065,2.159,9.346-1.534.231-3.04-2.122-4.987-5.075-4.774l.231.914c2.728-1.5,11.9-4.985,8.194-9.7-2.579-3.278-9.888-.895-12.083,2.01l.816.472c.641-1.758,1.515-6.227-2.03-5.289-4.845,1.281-6.714,6.65-9.123,10.388l.849.234a4.856,4.856,0,0,0-.715-2.464.47.47,0,0,0-.436-.186c-3.664.593-3.833,8.565-3.515,11.262a.476.476,0,0,0,.944-.111Z" transform="translate(593.36 -64.122)" fill="#fff"/>
          </g>
          <g id="Group_3815" data-name="Group 3815" transform="translate(21.526 26.558)">
            <path id="Path_1855" data-name="Path 1855" d="M-601.371,89.225a29.39,29.39,0,0,0,10.489,5.57c.581.171.955-.7.366-.878a28.76,28.76,0,0,1-10.276-5.446c-.473-.39-1.052.365-.579.754Z" transform="translate(601.547 -88.362)" fill="#fff"/>
          </g>
          <g id="Group_3816" data-name="Group 3816" transform="translate(11.804 9.841)">
            <path id="Path_1856" data-name="Path 1856" d="M-604.06,71.82a31.106,31.106,0,0,0-7.207,20.44c.008.614.952.495.945-.111A30.1,30.1,0,0,1-603.306,72.4c.391-.472-.363-1.052-.754-.58Z" transform="translate(611.269 -71.645)" fill="#fff"/>
          </g>
          <g id="Group_3817" data-name="Group 3817" transform="translate(23.908 26.324)">
            <path id="Path_1857" data-name="Path 1857" d="M-597.354,91.452a24.406,24.406,0,0,1,4.141-2.231c1.875-.792.256,1.675.344,1.521a.477.477,0,0,0,.495.655,25.594,25.594,0,0,1,3-.475,16.438,16.438,0,0,1,2.918.053q2.585-.115-.4,2.369a.479.479,0,0,0-.127.911,9.022,9.022,0,0,1,5.414,6.451c.922,4.493-4.425.785-4.87.463a19.415,19.415,0,0,1-2.914-2.73c-.345-.379-1.041-.062-.821.462l-1.591,2.383a11.545,11.545,0,0,1-1.669-2.035,13.166,13.166,0,0,1-1.65-3.636.479.479,0,0,0-.913.11q-2.222,2.175-2.083-.689a7.86,7.86,0,0,1,.545-3.995c.207-.574-.669-.945-.877-.366-.594,1.654-1.481,5.825.306,7.179,1.735,1.315,2.8-.266,3.05-2l-.913.109c.7,2.161,2.341,6.4,5.041,6.78,2.568.358,2.242-2.756,1.638-4.194l-.822.462c1.122,1.231,7.292,7.6,9.068,3.916,1.882-3.908-2.331-8.084-5.573-9.55l-.127.911c.744-.143,5.205-1.462,3.709-3.111-1.969-2.17-6.946-1.274-9.45-.725l.495.655c.333-.584,1.831-2.093.489-2.731-2.077-.987-4.773,1.21-6.425,2.316-.51.341.066,1.1.573.759Z" transform="translate(599.166 -88.128)" fill="#fff"/>
          </g>
          <g id="Group_3818" data-name="Group 3818" transform="translate(7.087)">
            <path id="Path_1858" data-name="Path 1858" d="M-601.99,81.94c-2.547,2.5-7.311,1.253-9.34-1.066a16.344,16.344,0,0,1-2.921-4.833,3.525,3.525,0,0,1-.345-2.407l2.483,1.8a.48.48,0,0,0,.732-.553,14.567,14.567,0,0,1-.6-6.335q2.615-3.512,3.258-1a5.305,5.305,0,0,0,.877,1.445.481.481,0,0,0,.756,0,37.2,37.2,0,0,1,3.535-3.753,12.63,12.63,0,0,1,2.457-1.665l.942-.4q3.525-1.653,4.469,3.529c-.957,3.225-4.256,6.423-6.575,8.724a.478.478,0,0,0,.433.762q4.779.612,1.6,2.393a6.316,6.316,0,0,1-3.113,1.067c-.518.07-.564.926-.01.943l1.2,1.547c-.177.58.7.954.878.366.511-1.67-.107-2.8-1.95-2.855l-.01.943a7.84,7.84,0,0,0,5.539-3.239.479.479,0,0,0,0-.576,3.858,3.858,0,0,0-4.254-1.533l.433.762c2.461-2.442,8.484-8.023,6.852-12.129-1.485-3.739-6.408-1.569-8.656-.045a17.477,17.477,0,0,0-2.436,2.195c-1.022,1.022-1.578,2.364-2.407.429a2.258,2.258,0,0,0-2.752-1.616c-3.5.554-1.962,8.491-1.361,10.39l.732-.552-3.311-2.4a.476.476,0,0,0-.577,0c-.975.893-.474,1.883-.088,3.024a17.042,17.042,0,0,0,4.073,6.878c2.333,2.283,7.488,3,10.019.518C-600.986,82.275-601.554,81.511-601.99,81.94Z" transform="translate(615.987 -61.804)" fill="#fff"/>
          </g>
        </g>
      </g>
      <g id="Group_4025" data-name="Group 4025" transform="translate(1277.71 1331.089)">
        <g id="Group_3838" data-name="Group 3838">
          <g id="Group_3820" data-name="Group 3820">
            <path id="Path_1859" data-name="Path 1859" d="M-618.437,225.653c3.059-14.919,1.383-35.166-17.1-37.7-7.068-.97-12.684,1.874-16.65,7.662-2.2,3.209-2.921,6.918-4.2,10.514-1.7,4.78-4.986,8.475-8.249,12.236-4.926,5.679-6.4,11.92-2.929,18.793s11.142,10.729,18.475,11.75a27.354,27.354,0,0,0,20.574-5.657c5.534-4.508,8.51-10.742,10.078-17.6.3-1.3-1.705-1.858-2-.552-1.271,5.56-3.424,10.682-7.44,14.824-4.86,5.013-11.982,7.259-18.826,7.109A22.875,22.875,0,0,1-665.256,237a13.436,13.436,0,0,1-1.848-10.718c.877-3.44,3.721-6.215,5.994-8.787,4.241-4.8,6.36-9.857,8.285-15.867,2.239-6.989,7.665-11.78,15.089-11.765,18.6.036,20.107,21.529,17.3,35.242C-620.709,226.409-618.706,226.965-618.437,225.653Z" transform="translate(669.463 -187.764)" fill="#fff"/>
          </g>
          <g id="Group_3821" data-name="Group 3821" transform="translate(37.565 23.444)">
            <path id="Path_1860" data-name="Path 1860" d="M-629.283,211.8a1.45,1.45,0,0,0-1.84-.414,1.532,1.532,0,0,0-.761,1.535c.274,1.956,4.137.81,2.6-1.121-.139-.175-.382.072-.244.245,1.2,1.514-2.146,2.282-2.027.535a1.235,1.235,0,0,1,.674-.931,1.113,1.113,0,0,1,1.353.4C-629.378,212.21-629.134,211.964-629.283,211.8Z" transform="translate(631.898 -211.208)" fill="#fff"/>
          </g>
          <g id="Group_3822" data-name="Group 3822" transform="translate(14.565 34.614)">
            <path id="Path_1861" data-name="Path 1861" d="M-651.7,223.789c-.244-.746-.779-1.654-1.7-1.351a2.546,2.546,0,0,0-1.431,1.784,1.354,1.354,0,0,0,.785,1.763,1.846,1.846,0,0,0,2.347-2.2.173.173,0,0,0-.334.092,1.5,1.5,0,0,1-2.077,1.707c-.56-.275-.491-.986-.325-1.48a2.19,2.19,0,0,1,1.085-1.32c.728-.3,1.134.532,1.317,1.093C-651.961,224.092-651.627,224-651.7,223.789Z" transform="translate(654.898 -222.378)" fill="#fff"/>
          </g>
          <g id="Group_3823" data-name="Group 3823" transform="translate(40.195 35.757)">
            <path id="Path_1862" data-name="Path 1862" d="M-629.029,224.505l.338.221c.562.369,1.082-.531.525-.9l-.338-.221c-.562-.369-1.082.531-.525.9Z" transform="translate(629.267 -223.521)" fill="#fff"/>
          </g>
          <g id="Group_3824" data-name="Group 3824" transform="translate(30.423 47.769)">
            <path id="Path_1863" data-name="Path 1863" d="M-638.887,236.421l.448.448a.52.52,0,0,0,.735-.735l-.448-.448a.52.52,0,0,0-.735.735Z" transform="translate(639.04 -235.533)" fill="#fff"/>
          </g>
          <g id="Group_3825" data-name="Group 3825" transform="translate(10.583 49.125)">
            <path id="Path_1864" data-name="Path 1864" d="M-658.866,237.539l.12.558c.141.655,1.142.377,1-.276l-.121-.558c-.141-.655-1.142-.377-1,.276Z" transform="translate(658.88 -236.889)" fill="#fff"/>
          </g>
          <g id="Group_3826" data-name="Group 3826" transform="translate(22.589 53.474)">
            <path id="Path_1865" data-name="Path 1865" d="M-646.731,242.136a1.531,1.531,0,0,0,1.04.483c.668.058.662-.981,0-1.039A.466.466,0,0,1-646,241.4c-.455-.493-1.188.244-.734.735Z" transform="translate(646.874 -241.238)" fill="#fff"/>
          </g>
          <g id="Group_3827" data-name="Group 3827" transform="translate(27.76 12.951)">
            <path id="Path_1866" data-name="Path 1866" d="M-641.063,201.846l.339-.1c.639-.2.366-1.2-.276-1l-.339.1c-.638.2-.366,1.2.276,1Z" transform="translate(641.702 -200.715)" fill="#fff"/>
          </g>
          <g id="Group_3828" data-name="Group 3828" transform="translate(38.396 11.803)">
            <path id="Path_1867" data-name="Path 1867" d="M-630.564,200.6a.519.519,0,0,0,0-1.038.519.519,0,0,0,0,1.038Z" transform="translate(631.067 -199.567)" fill="#fff"/>
          </g>
          <g id="Group_3829" data-name="Group 3829" transform="translate(23.941 22.335)">
            <path id="Path_1868" data-name="Path 1868" d="M-645.019,211.138a.52.52,0,0,0,0-1.039.52.52,0,0,0,0,1.039Z" transform="translate(645.521 -210.099)" fill="#fff"/>
          </g>
          <g id="Group_3830" data-name="Group 3830" transform="translate(27.527 30.627)">
            <path id="Path_1869" data-name="Path 1869" d="M-641.433,219.43h.448a.52.52,0,0,0,0-1.039h-.448a.52.52,0,0,0,0,1.039Z" transform="translate(641.936 -218.391)" fill="#fff"/>
          </g>
          <g id="Group_3831" data-name="Group 3831" transform="translate(43.862 29.741)">
            <path id="Path_1870" data-name="Path 1870" d="M-625.336,218.462l.224.112c.6.3,1.124-.6.524-.9l-.224-.112c-.6-.3-1.124.6-.524.9Z" transform="translate(625.601 -217.505)" fill="#fff"/>
          </g>
          <g id="Group_3832" data-name="Group 3832" transform="translate(34.307 41.091)">
            <path id="Path_1871" data-name="Path 1871" d="M-632.433,230.84a1.39,1.39,0,0,0-.485-1.779,1.432,1.432,0,0,0-1.728.2,1.778,1.778,0,0,0,.015,2.507c.781.66,1.825-.143,2.18-.885.1-.2-.2-.376-.3-.174-.328.686-1.256,1.371-1.864.582a1.479,1.479,0,0,1,.44-1.957,1.1,1.1,0,0,1,1.145.069,1.063,1.063,0,0,1,.262,1.347C-632.85,230.956-632.515,231.045-632.433,230.84Z" transform="translate(635.156 -228.856)" fill="#fff"/>
          </g>
          <g id="Group_3833" data-name="Group 3833" transform="translate(19.687 3.838)">
            <path id="Path_1872" data-name="Path 1872" d="M-649.751,194.672a1.291,1.291,0,0,0,1.867.392c1-.714-.031-2.693,1.225-3.118.21-.071.12-.406-.092-.334a1.487,1.487,0,0,0-.92,1.4,3.776,3.776,0,0,1-.252,1.587c-.33.613-1.237.4-1.529-.1a.173.173,0,0,0-.3.175Z" transform="translate(649.776 -191.602)" fill="#fff"/>
          </g>
          <g id="Group_3834" data-name="Group 3834" transform="translate(1.068 40.408)">
            <path id="Path_1873" data-name="Path 1873" d="M-668.307,228.491a2.387,2.387,0,0,1,1.359,2.266c-.012.9-.752,1.581-.69,2.519.015.222.361.223.347,0-.073-1.1.885-1.932.664-3.061a2.74,2.74,0,0,0-1.505-2.023c-.2-.1-.375.2-.175.3Z" transform="translate(668.395 -228.172)" fill="#fff"/>
          </g>
          <g id="Group_3835" data-name="Group 3835" transform="translate(17.549 26.357)">
            <path id="Path_1874" data-name="Path 1874" d="M-651.54,215.136l.559.116c.654.136.932-.865.277-1l-.56-.117c-.653-.135-.932.866-.276,1Z" transform="translate(651.914 -214.122)" fill="#fff"/>
          </g>
          <g id="Group_3836" data-name="Group 3836" transform="translate(35.258 5.976)">
            <path id="Path_1875" data-name="Path 1875" d="M-633.7,194.779h.561a.52.52,0,0,0,0-1.039h-.561a.52.52,0,0,0,0,1.039Z" transform="translate(634.205 -193.74)" fill="#fff"/>
          </g>
          <g id="Group_3837" data-name="Group 3837" transform="translate(22.808 43.522)">
            <path id="Path_1876" data-name="Path 1876" d="M-646.4,232.244l.784.336a.533.533,0,0,0,.711-.186.521.521,0,0,0-.187-.711l-.784-.336a.534.534,0,0,0-.711.186.52.52,0,0,0,.187.711Z" transform="translate(646.655 -231.287)" fill="#fff"/>
          </g>
        </g>
      </g>
      <g id="Group_4032" data-name="Group 4032" transform="translate(640.012 1283.639)">
        <g id="Group_3908" data-name="Group 3908">
          <g id="Group_3884" data-name="Group 3884" transform="translate(12.852 32.528)">
            <path id="Path_1920" data-name="Path 1920" d="M-689.619,165.506c3.481,4.83,3.2,10.257,2.711,15.908a176.406,176.406,0,0,1-3.387,21.107c-.147.7.909,1.075,1.058.369a188.3,188.3,0,0,0,3.585-23c.465-5.465.19-10.527-3.114-15.111-.424-.588-1.272.145-.853.727Z" transform="translate(690.309 -164.562)" fill="#fff"/>
          </g>
          <g id="Group_3885" data-name="Group 3885" transform="translate(17.787 31.319)">
            <path id="Path_1921" data-name="Path 1921" d="M-685.289,164.121a27.166,27.166,0,0,1,3.773,9.927.561.561,0,0,0,1.1-.215,27.971,27.971,0,0,0-3.863-10.2c-.379-.607-1.392-.126-1.01.488Z" transform="translate(685.374 -163.353)" fill="#fff"/>
          </g>
          <g id="Group_3886" data-name="Group 3886" transform="translate(21.561 32.172)">
            <path id="Path_1922" data-name="Path 1922" d="M-680.484,174.194a70.72,70.72,0,0,1,5.232-9.11.561.561,0,0,0-.923-.637,72.691,72.691,0,0,0-5.368,9.378c-.311.652.75,1.014,1.059.369Z" transform="translate(681.599 -164.207)" fill="#fff"/>
          </g>
          <g id="Group_3887" data-name="Group 3887" transform="translate(29.044 34.826)">
            <path id="Path_1923" data-name="Path 1923" d="M-670.391,167.109a26.094,26.094,0,0,0-3.717,9.873c-.115.713,1,.784,1.118.075a24.606,24.606,0,0,1,3.521-9.311c.385-.611-.537-1.249-.922-.637Z" transform="translate(674.116 -166.861)" fill="#fff"/>
          </g>
          <g id="Group_3888" data-name="Group 3888" transform="translate(28.995 38.737)">
            <path id="Path_1924" data-name="Path 1924" d="M-673.107,177.3a21.135,21.135,0,0,1,7.912-5.476c.673-.269.181-1.277-.487-1.01a22.326,22.326,0,0,0-8.348,5.848c-.484.537.446,1.166.923.638Z" transform="translate(674.166 -170.771)" fill="#fff"/>
          </g>
          <g id="Group_3889" data-name="Group 3889" transform="translate(24.971 41.622)">
            <path id="Path_1925" data-name="Path 1925" d="M-664.275,173.8a41.191,41.191,0,0,0-13.914,28.962.561.561,0,0,0,1.119.075,40.033,40.033,0,0,1,13.522-28.183c.543-.479-.185-1.332-.727-.854Z" transform="translate(678.19 -173.656)" fill="#fff"/>
          </g>
          <g id="Group_3890" data-name="Group 3890" transform="translate(12.993 70.253)">
            <path id="Path_1926" data-name="Path 1926" d="M-689.964,203.4c2.955,2.606,10.595,3.917,12.873-.212.346-.628-.574-1.27-.923-.638-1.957,3.548-8.861,2.089-11.313-.072-.542-.478-1.172.451-.637.922Z" transform="translate(690.167 -202.287)" fill="#fff"/>
          </g>
          <g id="Group_3891" data-name="Group 3891" transform="translate(18.049 46.265)">
            <path id="Path_1927" data-name="Path 1927" d="M-684.368,178.679a70.882,70.882,0,0,1-.738,7.653c-.081.536.758.589.839.056a70.62,70.62,0,0,0,.738-7.653.421.421,0,0,0-.839-.056Z" transform="translate(685.112 -178.3)" fill="#fff"/>
          </g>
          <g id="Group_3892" data-name="Group 3892" transform="translate(17.44 56.504)">
            <path id="Path_1928" data-name="Path 1928" d="M-685.658,188.918l-.062,1.356a.421.421,0,0,0,.839.056l.062-1.356a.421.421,0,0,0-.839-.056Z" transform="translate(685.721 -188.539)" fill="#fff"/>
          </g>
          <g id="Group_3893" data-name="Group 3893" transform="translate(24.374 52.601)">
            <path id="Path_1929" data-name="Path 1929" d="M-675.891,184.89a36.674,36.674,0,0,0-2.887,8.784c-.1.53.737.581.84.056a35.8,35.8,0,0,1,2.841-8.563c.233-.49-.563-.761-.794-.277Z" transform="translate(678.787 -184.636)" fill="#fff"/>
          </g>
          <g id="Group_3894" data-name="Group 3894" transform="translate(23.559 64.258)">
            <path id="Path_1930" data-name="Path 1930" d="M-679.206,196.565l-.369,1.056a.421.421,0,0,0,.794.277l.369-1.056a.421.421,0,0,0-.794-.277Z" transform="translate(679.601 -196.293)" fill="#fff"/>
          </g>
          <g id="Group_3895" data-name="Group 3895" transform="translate(0 21.027)">
            <path id="Path_1931" data-name="Path 1931" d="M-688.949,166.89a8.619,8.619,0,0,1-11.006-1.816c-2.5-2.756-1.9-11.052,3.22-10.276,1.071.163,1.178-1.516.112-1.678-5.073-.768-7.547,6.174-6.153,10.158,2.112,6.038,9.159,8.124,14.558,5.127.944-.525.219-2.042-.731-1.515Z" transform="translate(703.161 -153.061)" fill="#fff"/>
          </g>
          <g id="Group_3896" data-name="Group 3896" transform="translate(4.006 9.144)">
            <path id="Path_1932" data-name="Path 1932" d="M-697.394,153.1a9.189,9.189,0,0,1,4.336-9.468,7.423,7.423,0,0,1,8.883,1.588c.73.8,2.01-.289,1.28-1.091a9.267,9.267,0,0,0-10.894-2.012c-4.2,1.911-5.828,7.061-5.255,11.306.144,1.075,1.795.749,1.65-.323Z" transform="translate(699.155 -141.178)" fill="#fff"/>
          </g>
          <g id="Group_3897" data-name="Group 3897" transform="translate(17.204)">
            <path id="Path_1933" data-name="Path 1933" d="M-684.269,142.827a10.593,10.593,0,0,1,7.644-8.94c4.139-1.132,8.577,1.411,10.313,5.136a.841.841,0,0,0,1.514-.731,11.006,11.006,0,0,0-12.15-6.056c-4.966.93-8.342,5.747-9,10.479-.15,1.073,1.529,1.181,1.678.112Z" transform="translate(685.956 -132.034)" fill="#fff"/>
          </g>
          <g id="Group_3898" data-name="Group 3898" transform="translate(36.497 2.776)">
            <path id="Path_1934" data-name="Path 1934" d="M-665.084,137.964c2.673-3.1,8.088-.94,10.447,1.4,3.006,2.983,2.138,7.8-.659,10.5-.777.752.312,2.034,1.092,1.28a9.2,9.2,0,0,0,.189-13.525c-3.064-3.041-9.41-4.14-12.453-.613-.709.822.685,1.767,1.384.956Z" transform="translate(666.664 -134.81)" fill="#fff"/>
          </g>
          <g id="Group_3899" data-name="Group 3899" transform="translate(48.547 16.411)">
            <path id="Path_1935" data-name="Path 1935" d="M-653.855,150.123a9.222,9.222,0,0,1,6.923,2.9c2.08,2.162,2.843,6.665-.743,7.84-1.016.333-.708,1.989.323,1.651,3.632-1.191,4.526-4.824,3.264-8.157-1.444-3.811-5.8-5.927-9.655-5.912-1.077,0-1.2,1.682-.112,1.678Z" transform="translate(654.613 -148.445)" fill="#fff"/>
          </g>
          <g id="Group_3900" data-name="Group 3900" transform="translate(37.054 28.507)">
            <path id="Path_1936" data-name="Path 1936" d="M-645.259,162.214c7.053,3.358,2.767,13.022-2.237,15.889-5.641,3.231-12.568,1.023-17.078-3.058-.794-.719-2.081.366-1.28,1.091,5.806,5.254,13.872,7,20.655,2.509,5.857-3.876,7.706-14.585.494-18.019-.978-.466-1.522,1.127-.554,1.588Z" transform="translate(666.107 -160.542)" fill="#fff"/>
          </g>
          <g id="Group_3901" data-name="Group 3901" transform="translate(8.822 24.368)">
            <path id="Path_1937" data-name="Path 1937" d="M-694.177,161.589a7.581,7.581,0,0,0,8.379,2.887c3.234-.9,5.235-4.075,5.733-7.215.17-1.07-1.509-1.176-1.678-.112-.856,5.4-7.646,8.4-11.154,3.348-.619-.892-1.891.21-1.28,1.092Z" transform="translate(694.339 -156.403)" fill="#fff"/>
          </g>
          <g id="Group_3902" data-name="Group 3902" transform="translate(21.314 26.803)">
            <path id="Path_1938" data-name="Path 1938" d="M-681.751,160.025c2.857,5.694,9.4,6.891,14.891,4.375a.842.842,0,0,0-.731-1.515c-4.654,2.134-10.194,1.295-12.645-3.591a.842.842,0,0,0-1.515.731Z" transform="translate(681.846 -158.837)" fill="#fff"/>
          </g>
          <g id="Group_3903" data-name="Group 3903" transform="translate(32.933 32.035)">
            <path id="Path_1939" data-name="Path 1939" d="M-670.226,164.822a9.887,9.887,0,0,0,12.856,9.166c1.029-.305.718-1.96-.323-1.651a8.216,8.216,0,0,1-10.855-7.4c-.062-1.066-1.741-1.2-1.678-.112Z" transform="translate(670.228 -164.07)" fill="#fff"/>
          </g>
          <g id="Group_3904" data-name="Group 3904" transform="translate(29.427 13.007)">
            <path id="Path_1940" data-name="Path 1940" d="M-671.753,145.146a5.721,5.721,0,0,0-.924,7.6,6.1,6.1,0,0,0,8.362.982c.442-.316-.109-.952-.546-.64a5.3,5.3,0,0,1-6.891-.53c-1.844-1.874-1.3-5.164.544-6.772.409-.357-.137-1-.545-.639Z" transform="translate(673.734 -145.041)" fill="#fff"/>
          </g>
          <g id="Group_3905" data-name="Group 3905" transform="translate(12.766 19.772)">
            <path id="Path_1941" data-name="Path 1941" d="M-690.314,152.6a3.638,3.638,0,0,0,6.128-.134c.291-.457-.4-.935-.692-.478a2.805,2.805,0,0,1-4.8.066c-.307-.448-.943.1-.639.546Z" transform="translate(690.394 -151.806)" fill="#fff"/>
          </g>
          <g id="Group_3906" data-name="Group 3906" transform="translate(37.596 20.705)">
            <path id="Path_1942" data-name="Path 1942" d="M-664.79,153.008c-1.628,4.257-.76,8.83,3.263,11.326,3.256,2.019,7.4.329,8.964-2.914.236-.488-.561-.759-.794-.277-1.934,4-6.662,3.9-9.545,1.044-2.362-2.338-2.186-6.048-1.094-8.9.194-.507-.6-.783-.794-.277Z" transform="translate(665.565 -152.74)" fill="#fff"/>
          </g>
          <g id="Group_3907" data-name="Group 3907" transform="translate(51.173 37.988)">
            <path id="Path_1943" data-name="Path 1943" d="M-651.879,172.4c2.08,2.3,4.991.336,6.288-1.717.29-.458-.4-.936-.692-.478-.977,1.547-3.257,3.529-4.956,1.65-.364-.4-1,.143-.64.545Z" transform="translate(651.987 -170.022)" fill="#fff"/>
          </g>
        </g>
      </g>
      <g id="Group_3940" data-name="Group 3940" transform="translate(1823.99 1380.252)">
        <g id="Group_3934" data-name="Group 3934">
          <path id="Path_1968" data-name="Path 1968" d="M-421.125,289.539c-3.577-3.075-3.032-8.39-1.484-12.355,1.541-3.947,4.6-7.164,7.431-10.225l-.714.022a18.255,18.255,0,0,1,4.844,12.176,13.046,13.046,0,0,1-1.994,6.739c-1.624,2.728-5.73,5.8-8.691,3.1-.482-.44-1.173.3-.692.737,4.34,3.961,10.036-1.623,11.483-5.781,2.18-6.265.057-12.894-4.258-17.707a.508.508,0,0,0-.715.023c-3.506,3.792-6.892,7.684-8.373,12.733-1.115,3.8-.672,8.575,2.471,11.276.494.425,1.186-.312.692-.737Z" transform="translate(424.842 -266.107)" fill="#fff"/>
        </g>
        <g id="Group_3935" data-name="Group 3935" transform="translate(4.96 3.495)">
          <path id="Path_1969" data-name="Path 1969" d="M-416.44,270.113a73.566,73.566,0,0,1-3.417,19.777c-.2.62.792.833.988.216a74.563,74.563,0,0,0,3.44-20.038c.022-.652-.988-.6-1.011.045Z" transform="translate(419.883 -269.602)" fill="#fff"/>
        </g>
        <g id="Group_3936" data-name="Group 3936" transform="translate(3.533 9.674)">
          <path id="Path_1970" data-name="Path 1970" d="M-421.184,276.686a46.518,46.518,0,0,0,3.954,4.219.506.506,0,0,0,.692-.737,46.4,46.4,0,0,1-3.954-4.22c-.415-.5-1.1.243-.692.738Z" transform="translate(421.31 -275.781)" fill="#fff"/>
        </g>
        <g id="Group_3937" data-name="Group 3937" transform="translate(7.685 10.969)">
          <path id="Path_1971" data-name="Path 1971" d="M-416.417,281.025q2.04-1.6,4.216-3.007a.506.506,0,0,0-.535-.858q-2.177,1.407-4.216,3.007c-.508.4.022,1.26.535.858Z" transform="translate(417.158 -277.076)" fill="#fff"/>
        </g>
        <g id="Group_3938" data-name="Group 3938" transform="translate(2.005 16.47)">
          <path id="Path_1972" data-name="Path 1972" d="M-422.673,283.448a30.622,30.622,0,0,0,4.163,3.147c.551.348,1.018-.549.471-.895a28.925,28.925,0,0,1-3.942-2.99c-.485-.436-1.176.3-.692.738Z" transform="translate(422.838 -282.577)" fill="#fff"/>
        </g>
        <g id="Group_3939" data-name="Group 3939" transform="translate(6.191 16.461)">
          <path id="Path_1973" data-name="Path 1973" d="M-418.033,286.474a22.544,22.544,0,0,0,4.833-2.942c.5-.4-.026-1.264-.534-.858a21.594,21.594,0,0,1-4.6,2.834c-.587.265-.294,1.234.3.966Z" transform="translate(418.652 -282.568)" fill="#fff"/>
        </g>
      </g>
      <g id="Group_3947" data-name="Group 3947" transform="translate(1551.272 1294.483)">
        <g id="Group_3941" data-name="Group 3941">
          <path id="Path_1974" data-name="Path 1974" d="M-482.2,125.1c-5.077-1.163-7.279-6.637-7.806-11.307-.524-4.649.81-9.367,2-13.813l-.687.39a20.157,20.157,0,0,1,11,9.4,14.412,14.412,0,0,1,1.518,7.611c-.183,3.5-2.614,8.615-6.9,7.5a.559.559,0,0,0-.3,1.077c6.278,1.638,8.971-6.749,8.246-11.555-1.093-7.243-6.578-12.627-13.27-15.11a.56.56,0,0,0-.686.39c-1.475,5.509-2.781,11.053-1.63,16.748.866,4.288,3.754,8.723,8.214,9.746.7.16,1-.916.3-1.077Z" transform="translate(491.155 -99.265)" fill="#fff"/>
        </g>
        <g id="Group_3942" data-name="Group 3942" transform="translate(3.474 3.594)">
          <path id="Path_1975" data-name="Path 1975" d="M-487.62,103.71a81.234,81.234,0,0,1,6.835,21.08c.127.707,1.2.407,1.076-.3a82.258,82.258,0,0,0-6.947-21.347c-.313-.648-1.275-.081-.964.564Z" transform="translate(487.681 -102.86)" fill="#fff"/>
        </g>
        <g id="Group_3943" data-name="Group 3943" transform="translate(1.912 12.185)">
          <path id="Path_1976" data-name="Path 1976" d="M-488.873,112.572a51.129,51.129,0,0,0,6.033,2.088.558.558,0,0,0,.3-1.076,51.388,51.388,0,0,1-6.034-2.088c-.664-.278-.95.8-.3,1.076Z" transform="translate(489.243 -111.451)" fill="#fff"/>
        </g>
        <g id="Group_3944" data-name="Group 3944" transform="translate(8.152 9.15)">
          <path id="Path_1977" data-name="Path 1977" d="M-481.984,114.36q1.17-2.613,2.572-5.107a.558.558,0,0,0-.963-.563q-1.4,2.494-2.573,5.106c-.292.651.67,1.22.964.564Z" transform="translate(483.003 -108.416)" fill="#fff"/>
        </g>
        <g id="Group_3945" data-name="Group 3945" transform="translate(3.907 19.583)">
          <path id="Path_1978" data-name="Path 1978" d="M-486.85,119.945a33.873,33.873,0,0,0,5.686.933c.718.057.713-1.06,0-1.116a32.122,32.122,0,0,1-5.389-.894.559.559,0,0,0-.3,1.077Z" transform="translate(487.248 -118.848)" fill="#fff"/>
        </g>
        <g id="Group_3946" data-name="Group 3946" transform="translate(9.478 15.033)">
          <path id="Path_1979" data-name="Path 1979" d="M-480.76,120.514a24.847,24.847,0,0,0,3.209-5.36c.285-.653-.677-1.222-.964-.563a23.829,23.829,0,0,1-3.034,5.134c-.437.56.347,1.356.789.789Z" transform="translate(481.677 -114.298)" fill="#fff"/>
        </g>
      </g>
      <g id="Group_3954" data-name="Group 3954" transform="translate(2146.828 1399.87)">
        <g id="Group_3948" data-name="Group 3948">
          <path id="Path_1980" data-name="Path 1980" d="M-368.8,391.465c-5.077-1.164-7.279-6.638-7.806-11.308-.524-4.649.81-9.366,2-13.813l-.687.39a20.156,20.156,0,0,1,11,9.4,14.4,14.4,0,0,1,1.519,7.611c-.183,3.5-2.614,8.615-6.9,7.5a.558.558,0,0,0-.3,1.076c6.278,1.638,8.972-6.749,8.246-11.555-1.093-7.243-6.577-12.627-13.269-15.109a.56.56,0,0,0-.687.389c-1.475,5.509-2.78,11.053-1.63,16.748.866,4.288,3.754,8.723,8.215,9.746.7.161,1-.916.3-1.076Z" transform="translate(377.757 -365.631)" fill="#fff"/>
        </g>
        <g id="Group_3949" data-name="Group 3949" transform="translate(3.474 3.594)">
          <path id="Path_1981" data-name="Path 1981" d="M-374.221,370.075a81.234,81.234,0,0,1,6.835,21.08c.127.708,1.2.407,1.076-.3a82.336,82.336,0,0,0-6.947-21.347c-.313-.648-1.276-.081-.964.564Z" transform="translate(374.282 -369.225)" fill="#fff"/>
        </g>
        <g id="Group_3950" data-name="Group 3950" transform="translate(1.912 12.185)">
          <path id="Path_1982" data-name="Path 1982" d="M-375.475,378.937a51.393,51.393,0,0,0,6.034,2.089.559.559,0,0,0,.3-1.077,51.251,51.251,0,0,1-6.033-2.088c-.664-.277-.951.8-.3,1.076Z" transform="translate(375.844 -377.816)" fill="#fff"/>
        </g>
        <g id="Group_3951" data-name="Group 3951" transform="translate(8.153 9.15)">
          <path id="Path_1983" data-name="Path 1983" d="M-368.586,380.725q1.17-2.613,2.573-5.107a.558.558,0,0,0-.964-.563q-1.4,2.494-2.572,5.106c-.292.652.67,1.22.963.564Z" transform="translate(369.604 -374.781)" fill="#fff"/>
        </g>
        <g id="Group_3952" data-name="Group 3952" transform="translate(3.908 19.583)">
          <path id="Path_1984" data-name="Path 1984" d="M-373.451,386.31a33.856,33.856,0,0,0,5.686.933c.718.057.712-1.06,0-1.116a32.1,32.1,0,0,1-5.389-.894.559.559,0,0,0-.3,1.077Z" transform="translate(373.849 -385.213)" fill="#fff"/>
        </g>
        <g id="Group_3953" data-name="Group 3953" transform="translate(9.478 15.032)">
          <path id="Path_1985" data-name="Path 1985" d="M-367.361,386.879a24.887,24.887,0,0,0,3.209-5.36c.285-.653-.677-1.222-.964-.563a23.83,23.83,0,0,1-3.034,5.134c-.437.56.347,1.357.789.789Z" transform="translate(368.278 -380.663)" fill="#fff"/>
        </g>
      </g>
      <g id="Group_4040" data-name="Group 4040" transform="translate(772.48 1291.548)">
        <path id="Path_1687" data-name="Path 1687" d="M-639.481,123.917a5.121,5.121,0,0,1-2.244-.623c-4.485-2.212-7.082-7.211-7.651-12.179s.585-9.962,1.9-14.785c3.742,2.915,7.865,5.436,10.956,9.035s5.02,8.684,3.387,13.138a11.954,11.954,0,0,1-4.272,5.4c-.752.549-1.933.977-2.5.238" transform="translate(649.525 -96.33)" fill="#fff"/>
        <g id="Group_3961" data-name="Group 3961" transform="translate(1.581 1.657)">
          <g id="Group_3956" data-name="Group 3956" transform="translate(3.475 3.594)">
            <path id="Path_1987" data-name="Path 1987" d="M-645.25,102.431a81.243,81.243,0,0,1,6.834,21.08c.127.708,1.2.407,1.077-.3a82.334,82.334,0,0,0-6.947-21.347c-.314-.648-1.276-.082-.964.563Z" transform="translate(645.311 -101.582)" fill="#fff"/>
          </g>
          <g id="Group_3957" data-name="Group 3957" transform="translate(1.912 12.185)">
            <path id="Path_1988" data-name="Path 1988" d="M-646.5,111.294a51.442,51.442,0,0,0,6.033,2.088.558.558,0,0,0,.3-1.076,51.314,51.314,0,0,1-6.033-2.089c-.665-.277-.951.8-.3,1.077Z" transform="translate(646.874 -110.172)" fill="#fff"/>
          </g>
          <g id="Group_3958" data-name="Group 3958" transform="translate(8.153 9.15)">
            <path id="Path_1989" data-name="Path 1989" d="M-639.615,113.081q1.17-2.612,2.573-5.106a.559.559,0,0,0-.964-.564q-1.4,2.5-2.573,5.107c-.292.651.67,1.219.964.563Z" transform="translate(640.633 -107.137)" fill="#fff"/>
          </g>
          <g id="Group_3959" data-name="Group 3959" transform="translate(3.907 19.583)">
            <path id="Path_1990" data-name="Path 1990" d="M-644.481,118.666a33.892,33.892,0,0,0,5.686.934c.718.056.713-1.06,0-1.117a32.019,32.019,0,0,1-5.389-.893.558.558,0,0,0-.3,1.076Z" transform="translate(644.879 -117.57)" fill="#fff"/>
          </g>
          <g id="Group_3960" data-name="Group 3960" transform="translate(9.478 15.032)">
            <path id="Path_1991" data-name="Path 1991" d="M-638.39,119.236a24.907,24.907,0,0,0,3.208-5.36c.285-.653-.676-1.222-.964-.564a23.83,23.83,0,0,1-3.034,5.134c-.436.561.348,1.357.79.79Z" transform="translate(639.308 -113.02)" fill="#fff"/>
          </g>
        </g>
      </g>
      <g id="Group_4019" data-name="Group 4019" transform="translate(1605.829 1330.386)">
        <g id="Group_3968" data-name="Group 3968">
          <g id="Group_3962" data-name="Group 3962">
            <path id="Path_1992" data-name="Path 1992" d="M-481.965,176.394c3.321-4.012,9.2-3.519,13.609-1.891,4.388,1.621,8,4.933,11.44,7.995l-.039-.789a20.159,20.159,0,0,1-13.342,5.6,14.409,14.409,0,0,1-7.481-2.064c-3.045-1.737-6.522-6.207-3.6-9.532.475-.541-.354-1.289-.829-.748-4.284,4.872,2,11.047,6.617,12.559,6.961,2.278,14.236-.2,19.461-5.064a.558.558,0,0,0-.04-.788c-4.258-3.794-8.624-7.451-14.228-8.983-4.22-1.153-9.48-.567-12.4,2.958-.459.554.369,1.3.828.749Z" transform="translate(483.634 -172.151)" fill="#fff"/>
          </g>
          <g id="Group_3963" data-name="Group 3963" transform="translate(0.67 5.625)">
            <path id="Path_1993" data-name="Path 1993" d="M-460.423,181.169a81.227,81.227,0,0,1-21.9-3.368c-.69-.2-.9.892-.219,1.1a82.312,82.312,0,0,0,22.192,3.387c.719.012.646-1.1-.07-1.114Z" transform="translate(482.964 -177.776)" fill="#fff"/>
          </g>
          <g id="Group_3964" data-name="Group 3964" transform="translate(11.133 3.769)">
            <path id="Path_1994" data-name="Path 1994" d="M-467.777,176.066a51.424,51.424,0,0,0-4.577,4.451.559.559,0,0,0,.828.749,51.422,51.422,0,0,1,4.577-4.451c.547-.469-.29-1.21-.828-.749Z" transform="translate(472.501 -175.921)" fill="#fff"/>
          </g>
          <g id="Group_3965" data-name="Group 3965" transform="translate(11.043 8.439)">
            <path id="Path_1995" data-name="Path 1995" d="M-472.47,181.417q1.809,2.22,3.406,4.593a.558.558,0,0,0,.936-.608q-1.6-2.374-3.4-4.593c-.451-.553-1.391.051-.937.608Z" transform="translate(472.591 -180.59)" fill="#fff"/>
          </g>
          <g id="Group_3966" data-name="Group 3966" transform="translate(4.89 2.221)">
            <path id="Path_1996" data-name="Path 1996" d="M-475.272,174.561a33.9,33.9,0,0,0-3.39,4.659c-.373.616.627,1.113,1,.5a32.081,32.081,0,0,1,3.22-4.413c.472-.544-.357-1.292-.828-.748Z" transform="translate(478.744 -174.372)" fill="#fff"/>
          </g>
          <g id="Group_3967" data-name="Group 3967" transform="translate(5.06 6.901)">
            <path id="Path_1997" data-name="Path 1997" d="M-478.518,179.745a24.868,24.868,0,0,0,3.346,5.275c.455.548,1.4-.055.937-.607a23.864,23.864,0,0,1-3.223-5.018c-.3-.642-1.368-.3-1.06.35Z" transform="translate(478.573 -179.052)" fill="#fff"/>
          </g>
        </g>
      </g>
      <g id="Group_4042" data-name="Group 4042" transform="translate(1160.207 1332.547)">
        <path id="Path_1673" data-name="Path 1673" d="M-677.844,378c2.208-4.672,8.008-6.83,13.126-6.116s9.623,3.732,13.53,7.115c1.059.917,2.19,2.19,1.8,3.535a3.1,3.1,0,0,1-1.216,1.524c-2.128,1.59-4.879,2.042-7.522,2.316-4.246.441-8.682.521-12.62-1.125s-7.259-5.4-7.217-9.672" transform="translate(677.965 -371.468)" fill="#fff"/>
        <g id="Group_3975" data-name="Group 3975" transform="translate(1.231)">
          <g id="Group_3969" data-name="Group 3969">
            <path id="Path_1998" data-name="Path 1998" d="M-675.066,375.563c3.321-4.012,9.2-3.52,13.609-1.891,4.388,1.62,8,4.933,11.44,7.995l-.04-.789a20.156,20.156,0,0,1-13.342,5.6,14.405,14.405,0,0,1-7.481-2.064c-3.044-1.736-6.521-6.207-3.6-9.531.476-.541-.353-1.289-.828-.749-4.284,4.872,2,11.047,6.616,12.559,6.962,2.279,14.237-.2,19.462-5.063a.561.561,0,0,0-.04-.789c-4.258-3.793-8.624-7.451-14.229-8.982-4.219-1.154-9.48-.567-12.4,2.958-.458.554.37,1.3.829.749Z" transform="translate(676.735 -371.32)" fill="#fff"/>
          </g>
          <g id="Group_3970" data-name="Group 3970" transform="translate(0.669 5.625)">
            <path id="Path_1999" data-name="Path 1999" d="M-653.525,380.338a81.233,81.233,0,0,1-21.9-3.368c-.689-.2-.9.891-.218,1.1a82.3,82.3,0,0,0,22.191,3.387c.72.011.647-1.1-.07-1.114Z" transform="translate(676.065 -376.945)" fill="#fff"/>
          </g>
          <g id="Group_3971" data-name="Group 3971" transform="translate(11.133 3.769)">
            <path id="Path_2000" data-name="Path 2000" d="M-660.878,375.235a51.285,51.285,0,0,0-4.577,4.451.559.559,0,0,0,.828.749,51.145,51.145,0,0,1,4.577-4.451c.546-.469-.29-1.211-.828-.749Z" transform="translate(665.602 -375.089)" fill="#fff"/>
          </g>
          <g id="Group_3972" data-name="Group 3972" transform="translate(11.043 8.439)">
            <path id="Path_2001" data-name="Path 2001" d="M-665.571,380.586q1.807,2.219,3.4,4.593a.559.559,0,0,0,.937-.608q-1.6-2.375-3.406-4.593c-.45-.553-1.39.05-.936.608Z" transform="translate(665.692 -379.759)" fill="#fff"/>
          </g>
          <g id="Group_3973" data-name="Group 3973" transform="translate(4.89 2.221)">
            <path id="Path_2002" data-name="Path 2002" d="M-668.374,373.729a33.883,33.883,0,0,0-3.389,4.66c-.373.616.627,1.113,1,.5a32.026,32.026,0,0,1,3.221-4.413c.472-.544-.357-1.292-.829-.749Z" transform="translate(671.845 -373.54)" fill="#fff"/>
          </g>
          <g id="Group_3974" data-name="Group 3974" transform="translate(5.06 6.901)">
            <path id="Path_2003" data-name="Path 2003" d="M-671.619,378.914a24.893,24.893,0,0,0,3.346,5.275c.455.548,1.4-.055.936-.608a23.787,23.787,0,0,1-3.222-5.017c-.3-.643-1.369-.3-1.06.35Z" transform="translate(671.675 -378.221)" fill="#fff"/>
          </g>
        </g>
      </g>
      <g id="Group_4026" data-name="Group 4026" transform="translate(1589.879 1420.237)">
        <g id="Group_3985" data-name="Group 3985" transform="translate(1.666)">
          <g id="Group_3976" data-name="Group 3976" transform="translate(5.692 0.294)">
            <path id="Path_2004" data-name="Path 2004" d="M-471.193,359.635a13.658,13.658,0,0,1,1.282-20.252c.536-.45-.234-1.212-.765-.766a14.74,14.74,0,0,0-1.282,21.784c.474.513,1.238-.254.765-.766Z" transform="translate(476.16 -338.482)" fill="#fff"/>
          </g>
          <g id="Group_3977" data-name="Group 3977" transform="translate(9.96)">
            <path id="Path_2005" data-name="Path 2005" d="M-470.6,339.1c6.535,5.776,8.739,16.693-.938,20.773-.634.267-.356,1.316.287,1.044,10.319-4.35,8.717-16.13,1.416-22.583-.521-.461-1.29.3-.765.766Z" transform="translate(471.892 -338.187)" fill="#fff"/>
          </g>
          <g id="Group_3978" data-name="Group 3978" transform="translate(0 0.901)">
            <path id="Path_2006" data-name="Path 2006" d="M-472.751,357.873c-3.77-1.649-5.794-5.488-7.01-9.226a26.649,26.649,0,0,1-1.023-7.7c-.045-2.129,5.635,2.689,5.906,2.99.467.521,1.23-.247.765-.765a12.521,12.521,0,0,0-7.05-4.071.548.548,0,0,0-.685.522c-.1,6.818,1.481,16.091,8.55,19.184.633.277,1.185-.655.547-.935Z" transform="translate(481.852 -339.088)" fill="#fff"/>
          </g>
          <g id="Group_3979" data-name="Group 3979" transform="translate(2.896 5.943)">
            <path id="Path_2007" data-name="Path 2007" d="M-478.934,344.522a25.81,25.81,0,0,0,2.874,5.5c.236.343.8.018.561-.328a25.154,25.154,0,0,1-2.809-5.342c-.147-.387-.775-.219-.626.173Z" transform="translate(478.957 -344.13)" fill="#fff"/>
          </g>
          <g id="Group_3980" data-name="Group 3980" transform="translate(10.475 4.845)">
            <path id="Path_2008" data-name="Path 2008" d="M-470.828,343.346c-.1,5.56-.7,11.182-.516,16.731.013.417.663.419.649,0-.179-5.549.417-11.171.516-16.731a.325.325,0,0,0-.649,0Z" transform="translate(471.378 -343.032)" fill="#fff"/>
          </g>
          <g id="Group_3981" data-name="Group 3981" transform="translate(7.834 8.403)">
            <path id="Path_2009" data-name="Path 2009" d="M-473.925,347.147l2.976,3.058c.292.3.751-.159.459-.46l-2.975-3.057c-.293-.3-.752.159-.46.459Z" transform="translate(474.018 -346.59)" fill="#fff"/>
          </g>
          <g id="Group_3982" data-name="Group 3982" transform="translate(10.893 9.048)">
            <path id="Path_2010" data-name="Path 2010" d="M-470.474,350.081l3.868-2.239a.325.325,0,0,0-.328-.561l-3.868,2.239a.325.325,0,0,0,.328.561Z" transform="translate(470.959 -347.235)" fill="#fff"/>
          </g>
          <g id="Group_3983" data-name="Group 3983" transform="translate(8.028 14.531)">
            <path id="Path_2011" data-name="Path 2011" d="M-473.739,353.283l2.553,2.9c.277.315.735-.146.459-.459l-2.553-2.9c-.277-.315-.735.146-.459.459Z" transform="translate(473.824 -352.719)" fill="#fff"/>
          </g>
          <g id="Group_3984" data-name="Group 3984" transform="translate(10.679 14.846)">
            <path id="Path_2012" data-name="Path 2012" d="M-470.7,356.23l3.524-2.574c.334-.245.011-.809-.328-.561l-3.524,2.574c-.334.244-.011.808.328.561Z" transform="translate(471.174 -353.033)" fill="#fff"/>
          </g>
        </g>
      </g>
      <g id="Group_4041" data-name="Group 4041" transform="matrix(-0.602, -0.799, 0.799, -0.602, 725.449, 1439.075)">
        <g id="Group_3995" data-name="Group 3995" transform="translate(0.424 0.458)">
          <g id="Group_3986" data-name="Group 3986" transform="translate(5.693 0.294)">
            <path id="Path_2013" data-name="Path 2013" d="M4.967,21.153A13.657,13.657,0,0,1,6.249.9C6.785.451,6.015-.31,5.484.135A14.74,14.74,0,0,0,4.2,21.919c.474.514,1.238-.254.765-.766Z" fill="#fff"/>
          </g>
          <g id="Group_3987" data-name="Group 3987" transform="translate(9.96 0)">
            <path id="Path_2014" data-name="Path 2014" d="M1.3.908C7.831,6.684,10.034,17.6.357,21.682-.276,21.949,0,23,.645,22.726,10.963,18.375,9.362,6.6,2.061.142,1.54-.318.771.445,1.3.908Z" fill="#fff"/>
          </g>
          <g id="Group_3988" data-name="Group 3988" transform="translate(0 0.901)">
            <path id="Path_2015" data-name="Path 2015" d="M9.1,18.786C5.331,17.136,3.306,13.3,2.091,9.559a26.647,26.647,0,0,1-1.024-7.7C1.023-.269,6.7,4.549,6.974,4.851c.467.52,1.23-.248.765-.766A12.524,12.524,0,0,0,.689.014.548.548,0,0,0,0,.536c-.1,6.818,1.481,16.092,8.55,19.185.633.277,1.185-.656.546-.935Z" fill="#fff"/>
          </g>
          <g id="Group_3989" data-name="Group 3989" transform="translate(2.895 5.942)">
            <path id="Path_2016" data-name="Path 2016" d="M.023.392A25.813,25.813,0,0,0,2.9,5.889c.236.343.8.018.561-.328A25.081,25.081,0,0,1,.649.22C.5-.168-.127,0,.023.392Z" fill="#fff"/>
          </g>
          <g id="Group_3990" data-name="Group 3990" transform="translate(10.474 4.844)">
            <path id="Path_2017" data-name="Path 2017" d="M.549.314C.45,5.875-.146,11.5.033,17.045c.014.418.664.419.65,0C.5,11.5,1.1,5.875,1.2.314a.325.325,0,0,0-.65,0Z" fill="#fff"/>
          </g>
          <g id="Group_3991" data-name="Group 3991" transform="translate(7.834 8.403)">
            <path id="Path_2018" data-name="Path 2018" d="M.094.558,3.069,3.615c.293.3.752-.159.46-.459L.553.1C.26-.2-.2.257.094.558Z" fill="#fff"/>
          </g>
          <g id="Group_3992" data-name="Group 3992" transform="translate(10.893 9.048)">
            <path id="Path_2019" data-name="Path 2019" d="M.485,2.847,4.352.608A.325.325,0,0,0,4.024.047L.158,2.286a.325.325,0,0,0,.328.561Z" fill="#fff"/>
          </g>
          <g id="Group_3993" data-name="Group 3993" transform="translate(8.027 14.531)">
            <path id="Path_2020" data-name="Path 2020" d="M.085.565l2.554,2.9c.277.315.735-.147.459-.46L.545.105C.267-.21-.19.251.085.565Z" fill="#fff"/>
          </g>
          <g id="Group_3994" data-name="Group 3994" transform="translate(10.678 14.846)">
            <path id="Path_2021" data-name="Path 2021" d="M.469,3.2,3.992.623C4.327.378,4-.186,3.665.062L.141,2.636c-.335.244-.011.808.328.561Z" fill="#fff"/>
          </g>
        </g>
      </g>
      <path id="Path_2022" data-name="Path 2022" d="M-462.022,126.968c4.514,0,4.514-7,0-7s-4.514,7,0,7Z" transform="translate(2104.575 1227.73)" fill="#fff"/>
      <path id="Path_2023" data-name="Path 2023" d="M-373.032,210.692c4.514,0,4.514-7,0-7s-4.514,7,0,7Z" transform="translate(2524.584 1145.774)" fill="#fff"/>
      <path id="Path_2024" data-name="Path 2024" d="M-507.833,414.473c4.514,0,4.514-7,0-7s-4.514,7,0,7Z" transform="translate(1963.151 1062.772)" fill="#fff"/>
      <path id="Path_2025" data-name="Path 2025" d="M-674.754,282.831c4.514,0,4.514-7,0-7s-4.514,7,0,7Z" transform="translate(1321.173 1114.608)" fill="#fff"/>
      <path id="Path_2026" data-name="Path 2026" d="M-700.029,197.528c4.514,0,4.514-7,0-7s-4.514,7,0,7Z" transform="translate(1321.173 1151.461)" fill="#fff"/>
      <path id="Path_2027" data-name="Path 2027" d="M-613.146,191.209c4.514,0,4.514-7,0-7s-4.514,7,0,7Z" transform="translate(1638.038 1154.191)" fill="#fff"/>
      <path id="Path_2028" data-name="Path 2028" d="M-632.1,86.423c4.514,0,4.514-7,0-7s-4.514,7,0,7Z" transform="translate(1579.518 1195.218)" fill="#fff"/>
      <path id="Path_2029" data-name="Path 2029" d="M-539.427,134.34c4.514,0,4.514-7,0-7s-4.514,7,0,7Z" transform="translate(1865.617 1219.13)" fill="#fff"/>
      <path id="Path_2030" data-name="Path 2030" d="M-586.291,388.671c4.514,0,4.514-7,0-7s-4.514,7,0,7Z" transform="translate(1720.942 1062.772)" fill="#fff"/>
      <path id="Path_2031" data-name="Path 2031" d="M-669.488,404.995c4.514,0,4.514-7,0-7s-4.515,7,0,7Z" transform="translate(1321.173 1062.772)" fill="#fff"/>
      <path id="Path_2032" data-name="Path 2032" d="M-363.554,270.194c4.514,0,4.514-7,0-7s-4.514,7,0,7Z" transform="translate(2524.584 1120.067)" fill="#fff"/>
      <path id="Path_2033" data-name="Path 2033" d="M-334.066,316.005c4.514,0,4.514-7,0-7s-4.515,7,0,7Z" transform="translate(2524.584 1100.276)" fill="#fff"/>
      <g id="Group_4018" data-name="Group 4018" transform="translate(2060 1295.35)">
        <path id="Path_1682" data-name="Path 1682" d="M-412.663,198.907a14.819,14.819,0,0,1,9.6-5.1,1.32,1.32,0,0,0,.8-.263,1.392,1.392,0,0,0,.28-.943,7.464,7.464,0,0,1,7.5-6.69c.445.775-.326,1.657-.979,2.266a16.747,16.747,0,0,0-3.668,4.992,14.555,14.555,0,0,1,10.368,9.752.982.982,0,0,1-.032.889c-.266.337-.8.2-1.193.034a51.2,51.2,0,0,1-9.327-5.209,5.319,5.319,0,0,1,.871,6.206,1.528,1.528,0,0,1-.825.787,1.56,1.56,0,0,1-1.318-.414c-1.752-1.349-2.584-3.544-3.335-5.623a18.223,18.223,0,0,0-8.368,1.686" transform="translate(430.654 -185.899)" fill="#fff"/>
        <g id="Group_3798" data-name="Group 3798" transform="translate(16.373 1.191)">
          <g id="Group_3785" data-name="Group 3785" transform="translate(0 12.706)">
            <path id="Path_1827" data-name="Path 1827" d="M-371.895,248.252c-7.416-.941-12.247-7.018-14.168-13.759A80.071,80.071,0,0,1-389.1,210.42a31.13,31.13,0,0,0-.224-5.236,2.153,2.153,0,0,1-1.142-.428c-.136-.1-.255-.216-.379-.326a34.028,34.028,0,0,1,.159,6.9,70.21,70.21,0,0,0,.783,11.942c.913,6.412,1.909,13.739,5.719,19.173,3.13,4.465,8.3,6.795,13.527,7.533a8.988,8.988,0,0,1,3.052.873c1.976,1.062-.378,2.9-1.419,3.433a18.013,18.013,0,0,1-7.047,1.438c-14.11.474-28.157-5.613-33.6-19.391-2.524-6.388-3.065-13.48-3-20.283.053-5.181.683-11.311,4.172-15.41a6.629,6.629,0,0,1,.877-.839,16.5,16.5,0,0,0-2.569.63c-.075.022-.143.028-.216.044-2.134,2.879-2.988,6.842-3.444,10.211a61.868,61.868,0,0,0,.312,16.662c1.24,8.943,5.072,17.391,12.468,22.869,7.231,5.357,16.1,7.365,25,7.066,3.055-.157,9.084-.561,10.418-3.99C-364.1,249.292-369.153,248.6-371.895,248.252Z" transform="translate(414.281 -199.796)" fill="#fff"/>
          </g>
          <g id="Group_3786" data-name="Group 3786" transform="translate(3.798 16.601)">
            <path id="Path_1828" data-name="Path 1828" d="M-407.838,203.954a39.339,39.339,0,0,0,1.1,30.93c.213.455.885.059.673-.393a38.578,38.578,0,0,1-1.02-30.33c.181-.469-.573-.671-.752-.207Z" transform="translate(410.483 -203.691)" fill="#fff"/>
          </g>
          <g id="Group_3787" data-name="Group 3787" transform="translate(8.027 49.974)">
            <path id="Path_1829" data-name="Path 1829" d="M-406.243,237.551a6.474,6.474,0,0,0,1.341,2.7c.32.388.868-.166.551-.551a5.633,5.633,0,0,1-1.14-2.353c-.112-.49-.864-.283-.752.207Z" transform="translate(406.254 -237.064)" fill="#fff"/>
          </g>
          <g id="Group_3788" data-name="Group 3788" transform="translate(16.697 59.966)">
            <path id="Path_1830" data-name="Path 1830" d="M-397.465,247.719a16.416,16.416,0,0,0,8.807,4.4c.491.08.7-.671.207-.752a15.7,15.7,0,0,1-8.463-4.2c-.363-.347-.915.2-.551.552Z" transform="translate(397.584 -247.057)" fill="#fff"/>
          </g>
          <g id="Group_3789" data-name="Group 3789" transform="translate(30.055 65.849)">
            <path id="Path_1831" data-name="Path 1831" d="M-383.849,253.718h1.373a.39.39,0,0,0,0-.779h-1.373a.39.39,0,0,0,0,.779Z" transform="translate(384.226 -252.939)" fill="#fff"/>
          </g>
          <g id="Group_3790" data-name="Group 3790" transform="translate(12.925)">
            <path id="Path_1832" data-name="Path 1832" d="M-397.974,187.193a9.948,9.948,0,0,0-3.382,7.189c-.018.5.762.5.78,0a9.162,9.162,0,0,1,3.153-6.638c.378-.333-.176-.883-.551-.551Z" transform="translate(401.356 -187.09)" fill="#fff"/>
          </g>
          <g id="Group_3791" data-name="Group 3791" transform="translate(15.482 0.002)">
            <path id="Path_1833" data-name="Path 1833" d="M-397.8,187.873a8.234,8.234,0,0,1,2.913.734v-.673a10.131,10.131,0,0,0-3.9,6.1c-.1.49.648.7.751.207a9.335,9.335,0,0,1,3.539-5.629c.206-.155.3-.538,0-.673a9.409,9.409,0,0,0-3.306-.841c-.5-.035-.5.745,0,.78Z" transform="translate(398.799 -187.092)" fill="#fff"/>
          </g>
          <g id="Group_3792" data-name="Group 3792" transform="translate(0.451 6.671)">
            <path id="Path_1834" data-name="Path 1834" d="M-400.822,193.907c-4.584-.861-10.119,2.216-12.917,5.759-.308.39.24.946.552.551,2.578-3.265,7.928-6.353,12.158-5.558.491.092.7-.659.207-.752Z" transform="translate(413.83 -193.761)" fill="#fff"/>
          </g>
          <g id="Group_3793" data-name="Group 3793" transform="translate(0.64 11.892)">
            <path id="Path_1835" data-name="Path 1835" d="M-413.266,200.484a33.282,33.282,0,0,0,9.73-.74c.49-.11.282-.861-.208-.751a32.558,32.558,0,0,1-9.522.712c-.5-.036-.5.744,0,.779Z" transform="translate(413.641 -198.982)" fill="#fff"/>
          </g>
          <g id="Group_3794" data-name="Group 3794" transform="translate(10.206 11.73)">
            <path id="Path_1836" data-name="Path 1836" d="M-404.057,199.3a11.025,11.025,0,0,0,5.375,6.651c.443.239.836-.434.394-.673a10.23,10.23,0,0,1-5.017-6.185.39.39,0,0,0-.752.207Z" transform="translate(404.075 -198.82)" fill="#fff"/>
          </g>
          <g id="Group_3795" data-name="Group 3795" transform="translate(15.242 11.829)">
            <path id="Path_1837" data-name="Path 1837" d="M-398.144,205.549a13.365,13.365,0,0,1,.635-6.155c.165-.476-.589-.679-.752-.207a13.859,13.859,0,0,0-.663,6.362c.062.492.843.5.78,0Z" transform="translate(399.039 -198.919)" fill="#fff"/>
          </g>
          <g id="Group_3796" data-name="Group 3796" transform="translate(15.706 6.823)">
            <path id="Path_1838" data-name="Path 1838" d="M-398.2,194.765c6.366-.835,8.916,6.33,10.473,11.15.154.477.907.273.752-.207-1.661-5.142-4.5-12.6-11.225-11.723-.492.065-.5.845,0,.78Z" transform="translate(398.575 -193.914)" fill="#fff"/>
          </g>
          <g id="Group_3797" data-name="Group 3797" transform="translate(16.091 11.89)">
            <path id="Path_1839" data-name="Path 1839" d="M-398.073,199.644c3.083,3.005,6.3,5.959,10.684,6.729.491.086.7-.665.207-.752-4.26-.748-7.349-3.613-10.339-6.529-.36-.35-.912.2-.552.552Z" transform="translate(398.19 -198.98)" fill="#fff"/>
          </g>
        </g>
        <path id="Path_2034" data-name="Path 2034" d="M-427.268,197c4.514,0,4.514-7,0-7s-4.515,7,0,7Z" transform="translate(430.654 -185.899)" fill="#fff"/>
      </g>
    </g>
  </g>
</svg>
