<svg xmlns="http://www.w3.org/2000/svg" width="100" height="100" viewBox="0 0 100 100">
    <defs>
        <clipPath id="prefix__clip-path">
            <path id="prefix__Image_131" d="M0 0H100V100H0z" class="prefix__cls-1" data-name="Image 131" transform="translate(818 9900)"/>
        </clipPath>
        <style>
            .prefix__cls-1{fill:#fff}.prefix__cls-5{fill:#4385f4}.prefix__cls-6{fill:#3876df}.prefix__cls-7{fill:#2354a6}
        </style>
    </defs>
    <g id="prefix__Mask_Group_1" data-name="Mask Group 1" transform="translate(-818 -9900)">
        <g id="prefix__profile-reviews" transform="translate(817.186 9906.312)">
            <ellipse id="prefix__Ellipse_45" cx="41.558" cy="41.536" data-name="Ellipse 45" rx="41.558" ry="41.536" transform="translate(9.256 2.152)" style="stroke-width:2.507px;stroke:#4385f4;stroke-miterlimit:10;fill:#fff"/>
            <ellipse id="prefix__Ellipse_46" cx="38.75" cy="38.728" data-name="Ellipse 46" rx="38.75" ry="38.728" transform="translate(12.064 4.96)" style="fill:none;stroke-linecap:round;stroke-width:.627px;stroke-dasharray:2.02 4.04 2.02 4.04 2.02 4.04;stroke:#4385f4;stroke-miterlimit:10"/>
            <path id="prefix__Path_1368" d="M72.63 38.884a1.4 1.4 0 0 1-.453 1.075 1.593 1.593 0 0 1-1.143.419 1.814 1.814 0 0 1-.932-.245 1.767 1.767 0 0 1-.621-.565l.621-.556a1.128 1.128 0 0 0 .127.162 1.1 1.1 0 0 0 .826.36.736.736 0 0 0 .525-.177.6.6 0 0 0 .193-.488c0-.239-.152-.4-.453-.491-.6-.183-.932-.286-.966-.311a1.665 1.665 0 0 1-.6-.463 1.342 1.342 0 0 1-.208-.789 1.326 1.326 0 0 1 .444-1.015 1.513 1.513 0 0 1 1.059-.4 1.783 1.783 0 0 1 .86.211 1.472 1.472 0 0 1 .565.472l-.547.575a1.708 1.708 0 0 0-.258-.217 1.034 1.034 0 0 0-.6-.227.761.761 0 0 0-.453.124.522.522 0 0 0-.211.447.46.46 0 0 0 .2.422 2.752 2.752 0 0 0 .761.245 1.786 1.786 0 0 1 .913.491 1.242 1.242 0 0 1 .351.941zm-4.019 1.435l-.882.13V37.2a.932.932 0 0 0-.2-.652.786.786 0 0 0-.587-.2.777.777 0 0 0-.7.388 1.087 1.087 0 0 0-.165.556v3.022l-.879.165v-3.254a.988.988 0 0 0-.193-.655.655.655 0 0 0-.525-.224h-.08a.7.7 0 0 0-.671.394 1.6 1.6 0 0 0-.158.755v2.817l-.913.165v-4.758l.823-.143v.624a1.836 1.836 0 0 1 .267-.339 1.149 1.149 0 0 1 .823-.335 1.121 1.121 0 0 1 1.221.73 1.438 1.438 0 0 1 1.3-.752 1.41 1.41 0 0 1 1.2.519 2.062 2.062 0 0 1 .311 1.242zm-6.557-4.789l-.416.966a1.189 1.189 0 0 0-.165 0 1.758 1.758 0 0 0-.255.019 1.134 1.134 0 0 0-.276.1 1.068 1.068 0 0 0-.478.525 2.115 2.115 0 0 0-.23.972v2.218l-.882.143v-4.754l.817-.149v.988c.1-.171.214-.342.311-.519a1.308 1.308 0 0 1 .52-.379 2.264 2.264 0 0 1 .587-.1 2.578 2.578 0 0 1 .467-.031zm-3.973 4.789l-.882.124v-4.724l.882-.137zm.177-5.87l-.59.755-.565-.755.6-.749zm-1.979.5h-2.462v1.705h1.913v.873h-1.913v2.8l-.96.143v-6.4h3.233zm-5.42 3.081a1.643 1.643 0 0 0-.478-1.205 1.485 1.485 0 0 0-1.1-.5 1.426 1.426 0 0 0-1.112.472 1.612 1.612 0 0 0-.4 1.1 1.761 1.761 0 0 0 .413 1.2 1.345 1.345 0 0 0 1.053.469 1.618 1.618 0 0 0 1.115-.435 1.426 1.426 0 0 0 .506-1.1zm.776 2.292l-.829.13v-.811l-.177.2a2.249 2.249 0 0 1-.525.367 2.09 2.09 0 0 1-.9.2 2.156 2.156 0 0 1-1.643-.724 2.447 2.447 0 0 1-.668-1.721 2.562 2.562 0 0 1 .662-1.767 2.1 2.1 0 0 1 1.624-.736 2.342 2.342 0 0 1 .96.183 1.652 1.652 0 0 1 .491.348c.047.062.093.13.14.189v-2.12l.879-.13zm-6.19-2.339a1.6 1.6 0 0 0-.453-1.159 1.472 1.472 0 0 0-1.121-.475 1.391 1.391 0 0 0-1.072.491 1.618 1.618 0 0 0-.441 1.121 1.593 1.593 0 0 0 .447 1.131 1.475 1.475 0 0 0 1.112.475 1.429 1.429 0 0 0 1.068-.469 1.528 1.528 0 0 0 .457-1.115zm.9 0a2.432 2.432 0 0 1-.708 1.749 2.446 2.446 0 0 1-4.171-1.758 2.528 2.528 0 0 1 .69-1.767 2.2 2.2 0 0 1 1.687-.749 2.4 2.4 0 0 1 1.8.721 2.438 2.438 0 0 1 .7 1.789zm-6.616 0a1.612 1.612 0 0 0-.453-1.159 1.478 1.478 0 0 0-1.124-.475 1.388 1.388 0 0 0-1.068.491 1.618 1.618 0 0 0-.441 1.121 1.593 1.593 0 0 0 .447 1.131 1.469 1.469 0 0 0 1.109.475 1.429 1.429 0 0 0 1.072-.469 1.553 1.553 0 0 0 .457-1.115zm.9 0a2.423 2.423 0 0 1-.711 1.749 2.448 2.448 0 0 1-4.171-1.758 2.528 2.528 0 0 1 .69-1.767 2.2 2.2 0 0 1 1.69-.749 2.4 2.4 0 0 1 1.8.721 2.438 2.438 0 0 1 .7 1.789zm-5.8 1.7c-.149.1-.261.177-.342.224a5.945 5.945 0 0 1-.8.422 2.575 2.575 0 0 1-.972.224 3.469 3.469 0 0 1-2.485-.932 3.047 3.047 0 0 1-.994-2.333 3.417 3.417 0 0 1 .895-2.354 2.8 2.8 0 0 1 2.174-.994 3.615 3.615 0 0 1 1.131.193 3.106 3.106 0 0 1 1.242.727l-.571.64a2.19 2.19 0 0 0-.932-.525 3.233 3.233 0 0 0-.913-.121 1.892 1.892 0 0 0-1.506.727 2.671 2.671 0 0 0-.6 1.749 2.215 2.215 0 0 0 .693 1.67 2.432 2.432 0 0 0 1.755.665 1.764 1.764 0 0 0 .9-.276 4.691 4.691 0 0 0 .394-.311v-1.399h-1.913l.276-.87h2.547z" class="prefix__cls-5" data-name="Path 1368"/>
            <path id="prefix__Path_1369" d="M49.773 19.328s-.836-.084-.836.655v3.28h5.513v.985a.475.475 0 0 1-.5.494h-5.01v4.265h6.013a4.363 4.363 0 0 0 3.674-4.265v-5.414zm8.538-5.314H47.587c-3.879.932-3.96 4.137-3.96 4.137v10.871h4.125v-9.9a1.016 1.016 0 0 1 .826-.991h9.734z" class="prefix__cls-5" data-name="Path 1369"/>
            <path id="prefix__Path_1370" d="M100.814 51.808h-11.25V69.3h11.25L97.2 61.085z" class="prefix__cls-6" data-name="Path 1370"/>
            <path id="prefix__Path_1371" d="M.814 51.808h11.25V69.3H.814l3.609-8.215z" class="prefix__cls-6" data-name="Path 1371"/>
            <path id="prefix__Path_1372" d="M95.189 45.872l-5.625 5.908v17.49l5.625-5.9z" class="prefix__cls-7" data-name="Path 1372"/>
            <path id="prefix__Path_1373" d="M6.439 45.872l5.625 5.908v17.49l-5.625-5.9z" class="prefix__cls-7" data-name="Path 1373"/>
            <path id="prefix__Path_1374" d="M63.3 71.027a.767.767 0 0 0 .18-.512v-.332a.773.773 0 0 0-.18-.512.646.646 0 0 0-.888 0 .773.773 0 0 0-.18.512v.323a.767.767 0 0 0 .18.512.646.646 0 0 0 .888 0zm-1.186.236a1.059 1.059 0 0 1-.28-.727v-.376a1.053 1.053 0 0 1 .283-.724 1.137 1.137 0 0 1 1.478 0 1.041 1.041 0 0 1 .283.724v.375a1.059 1.059 0 0 1-.276.727.994.994 0 0 1-.745.27.982.982 0 0 1-.733-.27zm-2.416 0a1.037 1.037 0 0 1-.276-.745v-.351a1.037 1.037 0 0 1 .276-.742.985.985 0 0 1 .733-.267 1.149 1.149 0 0 1 .531.112.814.814 0 0 1 .326.28.69.69 0 0 1 .115.332.081.081 0 0 1-.028.071.1.1 0 0 1-.071.031h-.193a.106.106 0 0 1-.068-.019.364.364 0 0 1-.043-.074.584.584 0 0 0-.217-.311.621.621 0 0 0-.348-.09.575.575 0 0 0-.438.171.783.783 0 0 0-.177.522v.311a.77.77 0 0 0 .177.522.575.575 0 0 0 .438.171.621.621 0 0 0 .351-.09.6.6 0 0 0 .214-.312.261.261 0 0 1 .043-.071.106.106 0 0 1 .068-.019h.189a.109.109 0 0 1 .071.028.084.084 0 0 1 .028.071.68.68 0 0 1-.115.329.842.842 0 0 1-.326.283 1.149 1.149 0 0 1-.531.112.981.981 0 0 1-.733-.248zm-1.28.193a.1.1 0 0 1-.028-.071v-.311a.112.112 0 0 1 .024-.074.09.09 0 0 1 .071-.031h.315a.09.09 0 0 1 .071.031.112.112 0 0 1 .028.075v.311a.1.1 0 0 1-.1.1h-.311a.1.1 0 0 1-.071-.022zm-1.957-.028a.863.863 0 0 1-.311-.224.379.379 0 0 1-.1-.211.084.084 0 0 1 .031-.068.115.115 0 0 1 .068-.025h.183a.072.072 0 0 1 .04 0 .158.158 0 0 1 .043.04.78.78 0 0 0 .227.193.674.674 0 0 0 .335.071.711.711 0 0 0 .379-.09.286.286 0 0 0 .143-.255.248.248 0 0 0-.062-.174.516.516 0 0 0-.205-.118 2.908 2.908 0 0 0-.422-.115 1.1 1.1 0 0 1-.54-.242.553.553 0 0 1-.158-.407.59.59 0 0 1 .1-.311.686.686 0 0 1 .289-.245.984.984 0 0 1 .453-.1 1.084 1.084 0 0 1 .472.093.836.836 0 0 1 .3.214.376.376 0 0 1 .1.208.093.093 0 0 1-.031.065.1.1 0 0 1-.068.025h-.165a.1.1 0 0 1-.09-.047c-.05-.056-.09-.1-.124-.13a.4.4 0 0 0-.146-.078.689.689 0 0 0-.242-.034.531.531 0 0 0-.329.09.292.292 0 0 0-.115.239.258.258 0 0 0 .05.155.422.422 0 0 0 .183.118 2.567 2.567 0 0 0 .4.112 1.242 1.242 0 0 1 .59.252.534.534 0 0 1 .174.416.578.578 0 0 1-.106.342.73.73 0 0 1-.311.242 1.308 1.308 0 0 1-.506.087 1.137 1.137 0 0 1-.522-.084zm-4.14.028a.1.1 0 0 1-.028-.071V69.3a.093.093 0 0 1 .028-.071.09.09 0 0 1 .071-.031h.186a.081.081 0 0 1 .068.031.093.093 0 0 1 .028.071v.149a.783.783 0 0 1 .64-.3.711.711 0 0 1 .686.4.748.748 0 0 1 .311-.292.866.866 0 0 1 .438-.112.773.773 0 0 1 .587.245 1.009 1.009 0 0 1 .23.711v1.27a.1.1 0 0 1-.1.1h-.186a.1.1 0 0 1-.1-.1v-1.229a.705.705 0 0 0-.146-.5.509.509 0 0 0-.382-.152.478.478 0 0 0-.36.158.68.68 0 0 0-.152.5v1.242a.1.1 0 0 1-.1.1h-.193a.1.1 0 0 1-.1-.1v-1.248a.689.689 0 0 0-.152-.5.506.506 0 0 0-.376-.155.488.488 0 0 0-.36.155.68.68 0 0 0-.152.5v1.242a.1.1 0 0 1-.1.1h-.2a.1.1 0 0 1-.071-.028zm-1.649 0a.1.1 0 0 1-.028-.071v-2.078a.112.112 0 0 1 .028-.075.1.1 0 0 1 .071-.031h.186a.093.093 0 0 1 .075.031.1.1 0 0 1 .028.075v.193a.662.662 0 0 1 .621-.311h.171a.1.1 0 0 1 .075.028.09.09 0 0 1 .025.075v.162a.1.1 0 0 1-.1.1h-.261a.513.513 0 0 0-.379.14.528.528 0 0 0-.137.382v1.3a.1.1 0 0 1-.031.071.112.112 0 0 1-.075.028h-.2a.1.1 0 0 1-.071-.009zm-2.156 0a.1.1 0 0 1-.028-.071V69.54h-.379a.112.112 0 0 1-.071-.025.1.1 0 0 1-.028-.071V69.3a.093.093 0 0 1 .028-.071.09.09 0 0 1 .071-.031h.379v-.217a.792.792 0 0 1 .174-.553.724.724 0 0 1 .568-.2h.658a.09.09 0 0 1 .068.031.1.1 0 0 1 .028.071v.14a.093.093 0 0 1-.028.071.1.1 0 0 1-.068.025h-.649a.339.339 0 0 0-.283.106.55.55 0 0 0-.078.326v.2h1.009a.081.081 0 0 1 .068.031.093.093 0 0 1 .028.071v2.081a.1.1 0 0 1-.028.071.087.087 0 0 1-.068.028H49.7a.1.1 0 0 1-.1-.1v-1.84h-.714v1.845a.09.09 0 0 1-.031.071.093.093 0 0 1-.071.028h-.194a.1.1 0 0 1-.078-.022zm-1.485-.475a.826.826 0 0 0 .165-.485v-.339a.739.739 0 0 0-.168-.463.559.559 0 0 0-.46-.2.537.537 0 0 0-.46.2.932.932 0 0 0-.158.519v.127c0 .562.208.842.621.842a.544.544 0 0 0 .46-.2zm-1.242.248a1.3 1.3 0 0 1-.248-.755v-.264a1.283 1.283 0 0 1 .252-.752.814.814 0 0 1 .69-.311.842.842 0 0 1 .708.311v-1.015a.1.1 0 0 1 .031-.071.1.1 0 0 1 .071-.028h.2a.1.1 0 0 1 .1.1v2.916a.1.1 0 0 1-.1.1H47.3a.093.093 0 0 1-.071-.028.112.112 0 0 1-.025-.071v-.191a.857.857 0 0 1-.724.332.82.82 0 0 1-.686-.267zm-1.289-.208a.767.767 0 0 0 .18-.512v-.332a.773.773 0 0 0-.18-.512.646.646 0 0 0-.888 0 .773.773 0 0 0-.18.512v.329a.767.767 0 0 0 .18.512.646.646 0 0 0 .888 0zm-1.19.236a1.072 1.072 0 0 1-.276-.727v-.376a1.053 1.053 0 0 1 .283-.724 1.137 1.137 0 0 1 1.478 0 1.053 1.053 0 0 1 .283.724v.376a1.072 1.072 0 0 1-.276.727 1.165 1.165 0 0 1-1.491 0zm-1.32-.236a.749.749 0 0 0 .177-.512v-.332a.755.755 0 0 0-.177-.512.575.575 0 0 0-.444-.177.584.584 0 0 0-.447.177.786.786 0 0 0-.177.512v.329a.78.78 0 0 0 .177.512.584.584 0 0 0 .447.177.575.575 0 0 0 .45-.168zm-1.19.236a1.059 1.059 0 0 1-.276-.727v-.376a1.04 1.04 0 0 1 .283-.724 1.137 1.137 0 0 1 1.478 0 1.053 1.053 0 0 1 .283.724v.375a1.075 1.075 0 0 1-.28.727 1.159 1.159 0 0 1-1.488 0zm-1.413-.292a.823.823 0 0 0 .171-.481v-.304a.814.814 0 0 0-.171-.478.55.55 0 0 0-.463-.2.519.519 0 0 0-.457.2.932.932 0 0 0-.158.516v.233a.932.932 0 0 0 .158.516.516.516 0 0 0 .457.2.547.547 0 0 0 .469-.193zm-1.037 1.36a.789.789 0 0 1-.311-.28.575.575 0 0 1-.087-.273.1.1 0 0 1 .028-.068.109.109 0 0 1 .071-.028h.193a.087.087 0 0 1 .065.022.143.143 0 0 1 .047.071.525.525 0 0 0 .556.351.721.721 0 0 0 .488-.14.643.643 0 0 0 .158-.5v-.311a.857.857 0 0 1-.711.311.823.823 0 0 1-.7-.311 1.242 1.242 0 0 1-.245-.755v-.242a1.242 1.242 0 0 1 .245-.752.817.817 0 0 1 .7-.311.854.854 0 0 1 .721.339v-.189a.112.112 0 0 1 .028-.075.1.1 0 0 1 .071-.031h.189a.1.1 0 0 1 .071.031.112.112 0 0 1 .028.075v2.174a.9.9 0 0 1-1.022 1.013 1.174 1.174 0 0 1-.578-.118z" data-name="Path 1374" style="fill:#4a4a4a"/>
            <path id="prefix__Rectangle_132" d="M0 0H88.75V17.49H0z" class="prefix__cls-5" data-name="Rectangle 132" transform="translate(6.352 45.875)"/>
            <g id="prefix__Group_3483" data-name="Group 3483">
                <path id="prefix__Path_1375" d="M26.836 56.333h-.78v-3.727h1.553c.854 0 1.345.45 1.345 1.183a1.1 1.1 0 0 1-.69 1.068l.783 1.475h-.882l-.693-1.357h-.621zm0-1.926h.683a.556.556 0 0 0 .621-.59.572.572 0 0 0-.621-.593h-.683z" class="prefix__cls-1" data-name="Path 1375"/>
                <path id="prefix__Path_1376" d="M31.914 56.333h-2.466v-3.727h2.466v.64h-1.687v.9h1.59v.6h-1.59v.932h1.687z" class="prefix__cls-1" data-name="Path 1376"/>
                <path id="prefix__Path_1377" d="M34.629 55.432h-1.308l-.283.9h-.8l1.292-3.727h.913l1.3 3.727h-.829zm-1.14-.584h.988L34 53.327h-.019z" class="prefix__cls-1" data-name="Path 1377"/>
                <path id="prefix__Path_1378" d="M37.551 52.615a1.856 1.856 0 0 1 0 3.709h-1.432V52.6zM36.9 55.69h.562c.7 0 1.072-.422 1.072-1.242s-.388-1.208-1.072-1.208H36.9z" class="prefix__cls-1" data-name="Path 1378"/>
                <path id="prefix__Path_1379" d="M44.434 54.476a1.8 1.8 0 1 1-1.8-1.926 1.731 1.731 0 0 1 1.8 1.926zm-2.8 0c0 .78.388 1.27 1 1.27s1-.491 1-1.27-.388-1.277-1-1.277-.995.494-.995 1.277z" class="prefix__cls-1" data-name="Path 1379"/>
                <path id="prefix__Path_1380" d="M45.714 54.942a.78.78 0 1 0 1.553 0v-2.327h.78v2.4a1.564 1.564 0 0 1-3.106 0v-2.4h.78z" class="prefix__cls-1" data-name="Path 1380"/>
                <path id="prefix__Path_1381" d="M49.447 56.333h-.776v-3.727H50.2c.857 0 1.348.45 1.348 1.183a1.1 1.1 0 0 1-.677 1.059l.786 1.475h-.877l-.7-1.348h-.637zm0-1.926h.683a.556.556 0 0 0 .621-.59.568.568 0 0 0-.621-.593h-.683z" class="prefix__cls-1" data-name="Path 1381"/>
                <path id="prefix__Path_1382" d="M53.976 56.333H53.2v-3.727h1.537c.857 0 1.345.45 1.345 1.183a1.093 1.093 0 0 1-.674 1.059l.783 1.475h-.882l-.693-1.348h-.637zm0-1.926h.69a.556.556 0 0 0 .621-.59.568.568 0 0 0-.621-.593h-.677z" class="prefix__cls-1" data-name="Path 1382"/>
                <path id="prefix__Path_1383" d="M59.054 56.333h-2.463v-3.727h2.463v.64h-1.687v.9h1.593v.6h-1.593v.932h1.687z" class="prefix__cls-1" data-name="Path 1383"/>
                <path id="prefix__Path_1384" d="M60.629 56.333l-1.242-3.727h.87l.851 2.917h.019l.851-2.917h.848l-1.242 3.727z" class="prefix__cls-1" data-name="Path 1384"/>
                <path id="prefix__Path_1385" d="M63.2 56.333v-3.727h.786v3.727z" class="prefix__cls-1" data-name="Path 1385"/>
                <path id="prefix__Path_1386" d="M67.061 56.333H64.6v-3.727h2.47v.64h-1.686v.9h1.59v.6h-1.59v.932h1.686z" class="prefix__cls-1" data-name="Path 1386"/>
                <path id="prefix__Path_1387" d="M69.142 56.333h-.733l-.985-3.727h.8l.587 2.693h.022l.7-2.693h.667l.7 2.693h.022l.587-2.693h.808l-.988 3.727h-.733l-.7-2.541h-.022z" class="prefix__cls-1" data-name="Path 1387"/>
                <path id="prefix__Path_1388" d="M73.3 55.286c.037.311.357.509.767.509s.7-.2.7-.472-.177-.376-.621-.478l-.485-.106c-.686-.146-1.025-.494-1.025-1.037 0-.686.593-1.14 1.423-1.14s1.41.444 1.423 1.118h-.73c-.025-.311-.311-.506-.69-.506s-.643.183-.643.46.18.36.621.457l.45.1c.745.158 1.072.478 1.072 1.047 0 .721-.587 1.177-1.51 1.177s-1.463-.426-1.488-1.124z" class="prefix__cls-1" data-name="Path 1388"/>
            </g>
        </g>
    </g>
</svg>
